<svg width="83cm" height="35cm" viewBox="-220 -20 1660 700" xmlns="http://www.w3.org/2000/svg"><path fill="none" d="M-220-20h1660v700H-220z"/><path d="M777.778 0h124.444C920 0 920 0 920 10v40c0 10 0 10-17.778 10H777.778C760 60 760 60 760 50V10c0-10 0-10 17.778-10z" fill="#ffffc4"/><path d="M777.778 0h124.444C920 0 920 0 920 10v40c0 10 0 10-17.778 10H777.778C760 60 760 60 760 50V10c0-10 0-10 17.778-10" fill="none" stroke-width="2" stroke="#000"/><path d="M777.778 0h124.444C920 0 920 0 920 10v40c0 10 0 10-17.778 10H777.778C760 60 760 60 760 50V10c0-10 0-10 17.778-10M777.778 60h124.444M920 10v40M760 10v40M777.778 0h124.444" fill="none" stroke-width=".2" stroke="#000"/><text font-size="27.093" x="840" y="40.16" text-anchor="middle" font-family="sans-serif" font-weight="400"><tspan x="840" y="40.16">entity</tspan></text><path d="M1157.78 120h124.44c17.78 0 17.78 0 17.78 10v40c0 10 0 10-17.78 10h-124.44c-17.78 0-17.78 0-17.78-10v-40c0-10 0-10 17.78-10z" fill="#ffffc4"/><path d="M1157.78 120h124.44c17.78 0 17.78 0 17.78 10v40c0 10 0 10-17.78 10h-124.44c-17.78 0-17.78 0-17.78-10v-40c0-10 0-10 17.78-10" fill="none" stroke-width="2" stroke="#000"/><path d="M1157.78 120h124.44c17.78 0 17.78 0 17.78 10v40c0 10 0 10-17.78 10h-124.44c-17.78 0-17.78 0-17.78-10v-40c0-10 0-10 17.78-10M1157.78 180h124.44M1300 130v40M1140 130v40M1157.78 120h124.44" fill="none" stroke-width=".2" stroke="#000"/><text font-size="27.093" x="1220" y="160.16" text-anchor="middle" font-family="sans-serif" font-weight="400"><tspan x="1220" y="160.16">location</tspan></text><path d="M397.778 120h124.444C540 120 540 120 540 130v40c0 10 0 10-17.778 10H397.778C380 180 380 180 380 170v-40c0-10 0-10 17.778-10z" fill="#ffffc4"/><path d="M397.778 120h124.444C540 120 540 120 540 130v40c0 10 0 10-17.778 10H397.778C380 180 380 180 380 170v-40c0-10 0-10 17.778-10" fill="none" stroke-width="2" stroke="#000"/><path d="M397.778 120h124.444C540 120 540 120 540 130v40c0 10 0 10-17.778 10H397.778C380 180 380 180 380 170v-40c0-10 0-10 17.778-10M397.778 180h124.444M540 130v40M380 130v40M397.778 120h124.444" fill="none" stroke-width=".2" stroke="#000"/><text font-size="27.093" x="460" y="160.16" text-anchor="middle" font-family="sans-serif" font-weight="400"><tspan x="460" y="160.16">thing</tspan></text><path fill="none" stroke-width="2" stroke="#000" d="M460 100v20M1220 100v20M460 100h760"/><path d="M737.778 240h124.444C880 240 880 240 880 250v40c0 10 0 10-17.778 10H737.778C720 300 720 300 720 290v-40c0-10 0-10 17.778-10z" fill="#ffffc4"/><path d="M737.778 240h124.444C880 240 880 240 880 250v40c0 10 0 10-17.778 10H737.778C720 300 720 300 720 290v-40c0-10 0-10 17.778-10" fill="none" stroke-width="2" stroke="#000"/><path d="M737.778 240h124.444C880 240 880 240 880 250v40c0 10 0 10-17.778 10H737.778C720 300 720 300 720 290v-40c0-10 0-10 17.778-10M737.778 300h124.444M880 250v40M720 250v40M737.778 240h124.444" fill="none" stroke-width=".2" stroke="#000"/><text font-size="27.093" x="800" y="280.16" text-anchor="middle" font-family="sans-serif" font-weight="400"><tspan x="800" y="280.16">actor</tspan></text><path d="M57.778 240h124.444C200 240 200 240 200 250v40c0 10 0 10-17.778 10H57.778C40 300 40 300 40 290v-40c0-10 0-10 17.778-10z" fill="#ffffc4"/><path d="M57.778 240h124.444C200 240 200 240 200 250v40c0 10 0 10-17.778 10H57.778C40 300 40 300 40 290v-40c0-10 0-10 17.778-10" fill="none" stroke-width="2" stroke="#000"/><path d="M57.778 240h124.444C200 240 200 240 200 250v40c0 10 0 10-17.778 10H57.778C40 300 40 300 40 290v-40c0-10 0-10 17.778-10M57.778 300h124.444M200 250v40M40 250v40M57.778 240h124.444" fill="none" stroke-width=".2" stroke="#000"/><text font-size="27.093" x="120" y="280.16" text-anchor="middle" font-family="sans-serif" font-weight="400"><tspan x="120" y="280.16">object</tspan></text><path fill="none" stroke-width="2" stroke="#000" d="M120 240v-20"/><path d="M-24.444 600H84.444C100 600 100 600 100 610v40c0 10 0 10-15.556 10H-24.444C-40 660-40 660-40 650v-40c0-10 0-10 15.556-10z" fill="#d5f0f7"/><path d="M-24.444 600H84.444C100 600 100 600 100 610v40c0 10 0 10-15.556 10H-24.444C-40 660-40 660-40 650v-40c0-10 0-10 15.556-10" fill="none" stroke-width="2" stroke="#000"/><path d="M-24.444 600H84.444C100 600 100 600 100 610v40c0 10 0 10-15.556 10H-24.444C-40 660-40 660-40 650v-40c0-10 0-10 15.556-10M-24.444 660H84.444M100 610v40M-40 610v40M-24.444 600H84.444" fill="none" stroke-width=".2" stroke="#000"/><text font-size="27.093" x="30" y="640.16" text-anchor="middle" font-family="sans-serif" font-weight="400"><tspan x="30" y="640.16">clothing</tspan></text><path d="M-186.667 360h93.334C-80 360-80 360-80 370v40c0 10 0 10-13.333 10h-93.334C-200 420-200 420-200 410v-40c0-10 0-10 13.333-10z" fill="#d5f0f7"/><path d="M-186.667 360h93.334C-80 360-80 360-80 370v40c0 10 0 10-13.333 10h-93.334C-200 420-200 420-200 410v-40c0-10 0-10 13.333-10" fill="none" stroke-width="2" stroke="#000"/><path d="M-186.667 360h93.334C-80 360-80 360-80 370v40c0 10 0 10-13.333 10h-93.334C-200 420-200 420-200 410v-40c0-10 0-10 13.333-10M-186.667 420h93.334M-80 370v40M-200 370v40M-186.667 360h93.334" fill="none" stroke-width=".2" stroke="#000"/><text font-size="27.093" x="-140" y="400.16" text-anchor="middle" font-family="sans-serif" font-weight="400"><tspan x="-140" y="400.16">device</tspan></text><g><path d="M-186.667 480h93.334C-80 480-80 480-80 490v40c0 10 0 10-13.333 10h-93.334C-200 540-200 540-200 530v-40c0-10 0-10 13.333-10z" fill="#d5f0f7"/><path d="M-186.667 480h93.334C-80 480-80 480-80 490v40c0 10 0 10-13.333 10h-93.334C-200 540-200 540-200 530v-40c0-10 0-10 13.333-10" fill="none" stroke-width="2" stroke="#000"/><path d="M-186.667 480h93.334C-80 480-80 480-80 490v40c0 10 0 10-13.333 10h-93.334C-200 540-200 540-200 530v-40c0-10 0-10 13.333-10M-186.667 540h93.334M-80 490v40M-200 490v40M-186.667 480h93.334" fill="none" stroke-width=".2" stroke="#000"/><text font-size="27.093" x="-140" y="520.16" text-anchor="middle" font-family="sans-serif" font-weight="400"><tspan x="-140" y="520.16">door</tspan></text></g><g><path d="M160 360h140c20 0 20 0 20 10v40c0 10 0 10-20 10H160c-20 0-20 0-20-10v-40c0-10 0-10 20-10z" fill="#d5f0f7"/><path d="M160 360h140c20 0 20 0 20 10v40c0 10 0 10-20 10H160c-20 0-20 0-20-10v-40c0-10 0-10 20-10" fill="none" stroke-width="2" stroke="#000"/><path d="M160 360h140c20 0 20 0 20 10v40c0 10 0 10-20 10H160c-20 0-20 0-20-10v-40c0-10 0-10 20-10M160 420h140M320 370v40M140 370v40M160 360h140" fill="none" stroke-width=".2" stroke="#000"/><text font-size="27.093" x="230" y="400.16" text-anchor="middle" font-family="sans-serif" font-weight="400"><tspan x="230" y="400.16">lightsource</tspan></text></g><g><path d="M-24.444 360H84.444C100 360 100 360 100 370v40c0 10 0 10-15.556 10H-24.444C-40 420-40 420-40 410v-40c0-10 0-10 15.556-10z" fill="#d5f0f7"/><path d="M-24.444 360H84.444C100 360 100 360 100 370v40c0 10 0 10-15.556 10H-24.444C-40 420-40 420-40 410v-40c0-10 0-10 15.556-10" fill="none" stroke-width="2" stroke="#000"/><path d="M-24.444 360H84.444C100 360 100 360 100 370v40c0 10 0 10-15.556 10H-24.444C-40 420-40 420-40 410v-40c0-10 0-10 15.556-10M-24.444 420H84.444M100 370v40M-40 370v40M-24.444 360H84.444" fill="none" stroke-width=".2" stroke="#000"/><text font-size="27.093" x="30" y="400.16" text-anchor="middle" font-family="sans-serif" font-weight="400"><tspan x="30" y="400.16">liquid</tspan></text></g><g><path d="M384.444 360h171.112C580 360 580 360 580 370v40c0 10 0 10-24.444 10H384.444C360 420 360 420 360 410v-40c0-10 0-10 24.444-10z" fill="#d5f0f7"/><path d="M384.444 360h171.112C580 360 580 360 580 370v40c0 10 0 10-24.444 10H384.444C360 420 360 420 360 410v-40c0-10 0-10 24.444-10" fill="none" stroke-width="2" stroke="#000"/><path d="M384.444 360h171.112C580 360 580 360 580 370v40c0 10 0 10-24.444 10H384.444C360 420 360 420 360 410v-40c0-10 0-10 24.444-10M384.444 420h171.112M580 370v40M360 370v40M384.444 360h171.112" fill="none" stroke-width=".2" stroke="#000"/><text font-size="27.093" x="470" y="400.16" text-anchor="middle" font-family="sans-serif" font-weight="400"><tspan x="470" y="400.16">listed_container</tspan></text></g><g><path d="M-24.444 480H84.444C100 480 100 480 100 490v40c0 10 0 10-15.556 10H-24.444C-40 540-40 540-40 530v-40c0-10 0-10 15.556-10z" fill="#d5f0f7"/><path d="M-24.444 480H84.444C100 480 100 480 100 490v40c0 10 0 10-15.556 10H-24.444C-40 540-40 540-40 530v-40c0-10 0-10 15.556-10" fill="none" stroke-width="2" stroke="#000"/><path d="M-24.444 480H84.444C100 480 100 480 100 490v40c0 10 0 10-15.556 10H-24.444C-40 540-40 540-40 530v-40c0-10 0-10 15.556-10M-24.444 540H84.444M100 490v40M-40 490v40M-24.444 480H84.444" fill="none" stroke-width=".2" stroke="#000"/><text font-size="27.093" x="30" y="520.16" text-anchor="middle" font-family="sans-serif" font-weight="400"><tspan x="30" y="520.16">sound</tspan></text></g><g><path d="M160 600h140c20 0 20 0 20 10v40c0 10 0 10-20 10H160c-20 0-20 0-20-10v-40c0-10 0-10 20-10z" fill="#d5f0f7"/><path d="M160 600h140c20 0 20 0 20 10v40c0 10 0 10-20 10H160c-20 0-20 0-20-10v-40c0-10 0-10 20-10" fill="none" stroke-width="2" stroke="#000"/><path d="M160 600h140c20 0 20 0 20 10v40c0 10 0 10-20 10H160c-20 0-20 0-20-10v-40c0-10 0-10 20-10M160 660h140M320 610v40M140 610v40M160 600h140" fill="none" stroke-width=".2" stroke="#000"/><text font-size="27.093" x="230" y="640.16" text-anchor="middle" font-family="sans-serif" font-weight="400"><tspan x="230" y="640.16">supporter</tspan></text></g><g><path d="M160 480h140c20 0 20 0 20 10v40c0 10 0 10-20 10H160c-20 0-20 0-20-10v-40c0-10 0-10 20-10z" fill="#d5f0f7"/><path d="M160 480h140c20 0 20 0 20 10v40c0 10 0 10-20 10H160c-20 0-20 0-20-10v-40c0-10 0-10 20-10" fill="none" stroke-width="2" stroke="#000"/><path d="M160 480h140c20 0 20 0 20 10v40c0 10 0 10-20 10H160c-20 0-20 0-20-10v-40c0-10 0-10 20-10M160 540h140M320 490v40M140 490v40M160 480h140" fill="none" stroke-width=".2" stroke="#000"/><text font-size="27.093" x="230" y="520.16" text-anchor="middle" font-family="sans-serif" font-weight="400"><tspan x="230" y="520.16">weapon</tspan></text></g><g><path d="M-186.667 600h93.334C-80 600-80 600-80 610v40c0 10 0 10-13.333 10h-93.334C-200 660-200 660-200 650v-40c0-10 0-10 13.333-10z" fill="#d5f0f7"/><path d="M-186.667 600h93.334C-80 600-80 600-80 610v40c0 10 0 10-13.333 10h-93.334C-200 660-200 660-200 650v-40c0-10 0-10 13.333-10" fill="none" stroke-width="2" stroke="#000"/><path d="M-186.667 600h93.334C-80 600-80 600-80 610v40c0 10 0 10-13.333 10h-93.334C-200 660-200 660-200 650v-40c0-10 0-10 13.333-10M-186.667 660h93.334M-80 610v40M-200 610v40M-186.667 600h93.334" fill="none" stroke-width=".2" stroke="#000"/><text font-size="27.093" x="-140" y="640.16" text-anchor="middle" font-family="sans-serif" font-weight="400"><tspan x="-140" y="640.16">window</tspan></text></g><g><path d="M384.444 480h171.112C580 480 580 480 580 490v40c0 10 0 10-24.444 10H384.444C360 540 360 540 360 530v-40c0-10 0-10 24.444-10z" fill="#a6cfda"/><path d="M384.444 480h171.112C580 480 580 480 580 490v40c0 10 0 10-24.444 10H384.444C360 540 360 540 360 530v-40c0-10 0-10 24.444-10" fill="none" stroke-width="2" stroke="#000"/><path d="M384.444 480h171.112C580 480 580 480 580 490v40c0 10 0 10-24.444 10H384.444C360 540 360 540 360 530v-40c0-10 0-10 24.444-10M384.444 540h171.112M580 490v40M360 490v40M384.444 480h171.112" fill="none" stroke-width=".2" stroke="#000"/><text font-size="27.093" x="470" y="520.16" text-anchor="middle" font-family="sans-serif" font-weight="400"><tspan x="470" y="520.16">room_object</tspan></text></g><g><path d="M384.444 600h171.112C580 600 580 600 580 610v40c0 10 0 10-24.444 10H384.444C360 660 360 660 360 650v-40c0-10 0-10 24.444-10z" fill="#a6cfda"/><path d="M384.444 600h171.112C580 600 580 600 580 610v40c0 10 0 10-24.444 10H384.444C360 660 360 660 360 650v-40c0-10 0-10 24.444-10" fill="none" stroke-width="2" stroke="#000"/><path d="M384.444 600h171.112C580 600 580 600 580 610v40c0 10 0 10-24.444 10H384.444C360 660 360 660 360 650v-40c0-10 0-10 24.444-10M384.444 660h171.112M580 610v40M360 610v40M384.444 600h171.112" fill="none" stroke-width=".2" stroke="#000"/><text font-size="27.093" x="470" y="640.16" text-anchor="middle" font-family="sans-serif" font-weight="400"><tspan x="470" y="640.16">site_object</tspan></text></g><path fill="none" stroke-width="2" stroke="#000" d="M-80 630h40M-80 510h40M-80 390h40M-60 630V340M320 630h40M320 510h40M320 390h40M340 630V340M-60 340h400M120 300v40"/><g><path d="M737.778 360h124.444C880 360 880 360 880 370v40c0 10 0 10-17.778 10H737.778C720 420 720 420 720 410v-40c0-10 0-10 17.778-10z" fill="#a6cfda"/><path d="M737.778 360h124.444C880 360 880 360 880 370v40c0 10 0 10-17.778 10H737.778C720 420 720 420 720 410v-40c0-10 0-10 17.778-10" fill="none" stroke-width="2" stroke="#000"/><path d="M737.778 360h124.444C880 360 880 360 880 370v40c0 10 0 10-17.778 10H737.778C720 420 720 420 720 410v-40c0-10 0-10 17.778-10M737.778 420h124.444M880 370v40M720 370v40M737.778 360h124.444" fill="none" stroke-width=".2" stroke="#000"/><text font-size="27.093" x="800" y="400.16" text-anchor="middle" font-family="sans-serif" font-weight="400"><tspan x="800" y="400.16">person</tspan></text></g><g><path d="M637.778 480h124.444C780 480 780 480 780 490v40c0 10 0 10-17.778 10H637.778C620 540 620 540 620 530v-40c0-10 0-10 17.778-10z" fill="#d5f0f7"/><path d="M637.778 480h124.444C780 480 780 480 780 490v40c0 10 0 10-17.778 10H637.778C620 540 620 540 620 530v-40c0-10 0-10 17.778-10" fill="none" stroke-width="2" stroke="#000"/><path d="M637.778 480h124.444C780 480 780 480 780 490v40c0 10 0 10-17.778 10H637.778C620 540 620 540 620 530v-40c0-10 0-10 17.778-10M637.778 540h124.444M780 490v40M620 490v40M637.778 480h124.444" fill="none" stroke-width=".2" stroke="#000"/><text font-size="27.093" x="700" y="520.16" text-anchor="middle" font-family="sans-serif" font-weight="400"><tspan x="700" y="520.16">female</tspan></text></g><g><path d="M837.778 480h124.444C980 480 980 480 980 490v40c0 10 0 10-17.778 10H837.778C820 540 820 540 820 530v-40c0-10 0-10 17.778-10z" fill="#d5f0f7"/><path d="M837.778 480h124.444C980 480 980 480 980 490v40c0 10 0 10-17.778 10H837.778C820 540 820 540 820 530v-40c0-10 0-10 17.778-10" fill="none" stroke-width="2" stroke="#000"/><path d="M837.778 480h124.444C980 480 980 480 980 490v40c0 10 0 10-17.778 10H837.778C820 540 820 540 820 530v-40c0-10 0-10 17.778-10M837.778 540h124.444M980 490v40M820 490v40M837.778 480h124.444" fill="none" stroke-width=".2" stroke="#000"/><text font-size="27.093" x="900" y="520.16" text-anchor="middle" font-family="sans-serif" font-weight="400"><tspan x="900" y="520.16">male</tspan></text></g><path fill="none" stroke-width="2" stroke="#000" d="M700 480l100-60M900 480l-100-60M800 300v60M800 220H120M800 240v-20M460 220v-40"/><g><path d="M1206.67 480h186.66c26.67 0 26.67 0 26.67 10v40c0 10 0 10-26.67 10h-186.66c-26.67 0-26.67 0-26.67-10v-40c0-10 0-10 26.67-10z" fill="#71dbf7"/><path d="M1206.67 480h186.66c26.67 0 26.67 0 26.67 10v40c0 10 0 10-26.67 10h-186.66c-26.67 0-26.67 0-26.67-10v-40c0-10 0-10 26.67-10" fill="none" stroke-width="2" stroke="#000"/><path d="M1206.67 480h186.66c26.67 0 26.67 0 26.67 10v40c0 10 0 10-26.67 10h-186.66c-26.67 0-26.67 0-26.67-10v-40c0-10 0-10 26.67-10M1206.67 540h186.66M1420 490v40M1180 490v40M1206.67 480h186.66" fill="none" stroke-width=".2" stroke="#000"/><text font-size="27.093" x="1300" y="520.16" text-anchor="middle" font-family="sans-serif" font-weight="400"><tspan x="1300" y="520.16">definition_block</tspan></text></g><g><path d="M1022.22 240h155.56c22.22 0 22.22 0 22.22 10v40c0 10 0 10-22.22 10h-155.56c-22.22 0-22.22 0-22.22-10v-40c0-10 0-10 22.22-10z" fill="#d5f0f7"/><path d="M1022.22 240h155.56c22.22 0 22.22 0 22.22 10v40c0 10 0 10-22.22 10h-155.56c-22.22 0-22.22 0-22.22-10v-40c0-10 0-10 22.22-10" fill="none" stroke-width="2" stroke="#000"/><path d="M1022.22 240h155.56c22.22 0 22.22 0 22.22 10v40c0 10 0 10-22.22 10h-155.56c-22.22 0-22.22 0-22.22-10v-40c0-10 0-10 22.22-10M1022.22 300h155.56M1200 250v40M1000 250v40M1022.22 240h155.56" fill="none" stroke-width=".2" stroke="#000"/><text font-size="27.093" x="1100" y="280.16" text-anchor="middle" font-family="sans-serif" font-weight="400"><tspan x="1100" y="280.16">dark_location</tspan></text></g><g><path d="M1331.11 360h77.78c11.11 0 11.11 0 11.11 10v40c0 10 0 10-11.11 10h-77.78c-11.11 0-11.11 0-11.11-10v-40c0-10 0-10 11.11-10z" fill="#d5f0f7"/><path d="M1331.11 360h77.78c11.11 0 11.11 0 11.11 10v40c0 10 0 10-11.11 10h-77.78c-11.11 0-11.11 0-11.11-10v-40c0-10 0-10 11.11-10" fill="none" stroke-width="2" stroke="#000"/><path d="M1331.11 360h77.78c11.11 0 11.11 0 11.11 10v40c0 10 0 10-11.11 10h-77.78c-11.11 0-11.11 0-11.11-10v-40c0-10 0-10 11.11-10M1331.11 420h77.78M1420 370v40M1320 370v40M1331.11 360h77.78" fill="none" stroke-width=".2" stroke="#000"/><text font-size="27.093" x="1370" y="400.16" text-anchor="middle" font-family="sans-serif" font-weight="400"><tspan x="1370" y="400.16">room</tspan></text></g><g><path d="M1331.11 240h77.78c11.11 0 11.11 0 11.11 10v40c0 10 0 10-11.11 10h-77.78c-11.11 0-11.11 0-11.11-10v-40c0-10 0-10 11.11-10z" fill="#d5f0f7"/><path d="M1331.11 240h77.78c11.11 0 11.11 0 11.11 10v40c0 10 0 10-11.11 10h-77.78c-11.11 0-11.11 0-11.11-10v-40c0-10 0-10 11.11-10" fill="none" stroke-width="2" stroke="#000"/><path d="M1331.11 240h77.78c11.11 0 11.11 0 11.11 10v40c0 10 0 10-11.11 10h-77.78c-11.11 0-11.11 0-11.11-10v-40c0-10 0-10 11.11-10M1331.11 300h77.78M1420 250v40M1320 250v40M1331.11 240h77.78" fill="none" stroke-width=".2" stroke="#000"/><text font-size="27.093" x="1370" y="280.16" text-anchor="middle" font-family="sans-serif" font-weight="400"><tspan x="1370" y="280.16">site</tspan></text></g><path fill="none" stroke-width="2" stroke="#000" d="M1300 220h-200M1100 300l100 60M1220 220v-40M840 100V60"/><g><path d="M937.778 360h124.442c17.78 0 17.78 0 17.78 10v40c0 10 0 10-17.78 10H937.778C920 420 920 420 920 410v-40c0-10 0-10 17.778-10z" fill="#d5f0f7"/><path d="M937.778 360h124.442c17.78 0 17.78 0 17.78 10v40c0 10 0 10-17.78 10H937.778C920 420 920 420 920 410v-40c0-10 0-10 17.778-10" fill="none" stroke-width="2" stroke="#000"/><path d="M937.778 360h124.442c17.78 0 17.78 0 17.78 10v40c0 10 0 10-17.78 10H937.778C920 420 920 420 920 410v-40c0-10 0-10 17.778-10M937.778 420h124.442M1080 370v40M920 370v40M937.778 360h124.442" fill="none" stroke-width=".2" stroke="#000"/><text font-size="27.093" x="1000" y="400.16" text-anchor="middle" font-family="sans-serif" font-weight="400"><tspan x="1000" y="400.16">dark_room</tspan></text></g><g><path d="M1137.78 360h124.44c17.78 0 17.78 0 17.78 10v40c0 10 0 10-17.78 10h-124.44c-17.78 0-17.78 0-17.78-10v-40c0-10 0-10 17.78-10z" fill="#d5f0f7"/><path d="M1137.78 360h124.44c17.78 0 17.78 0 17.78 10v40c0 10 0 10-17.78 10h-124.44c-17.78 0-17.78 0-17.78-10v-40c0-10 0-10 17.78-10" fill="none" stroke-width="2" stroke="#000"/><path d="M1137.78 360h124.44c17.78 0 17.78 0 17.78 10v40c0 10 0 10-17.78 10h-124.44c-17.78 0-17.78 0-17.78-10v-40c0-10 0-10 17.78-10M1137.78 420h124.44M1280 370v40M1120 370v40M1137.78 360h124.44" fill="none" stroke-width=".2" stroke="#000"/><text font-size="27.093" x="1200" y="400.16" text-anchor="middle" font-family="sans-serif" font-weight="400"><tspan x="1200" y="400.16">dark_site</tspan></text></g><path fill="none" stroke-width="2" stroke="#000" d="M1100 300l-100 60M1300 480V220M1100 240v-20M1320 271.276h-20M1320 390.884h-20"/></svg>