<svg xmlns="http://www.w3.org/2000/svg" xmlns:xlink="http://www.w3.org/1999/xlink" width="307pt" height="172" viewBox="0 0 307 129"><defs><symbol overflow="visible" id="a"><path style="stroke:none" d="M1.563.05C1.163.048.852-.07.625-.312.395-.55.281-.886.281-1.32c0-.43.106-.774.32-1.028.212-.254.497-.382.856-.382.332 0 .598.113.797.332.195.226.293.515.297.875v.253H.703c.008.317.086.555.238.72.149.163.36.245.637.245.285 0 .57-.058.856-.183v.363a2.038 2.038 0 0 1-.407.133c-.129.023-.285.039-.465.043zm-.11-2.44c-.219 0-.39.07-.516.21-.128.14-.207.336-.226.582h1.402c-.004-.254-.062-.449-.172-.586a.606.606 0 0 0-.488-.207zm0 0"/></symbol><symbol overflow="visible" id="b"><path style="stroke:none" d="M2.266 0v-1.734c-.004-.22-.055-.38-.149-.489-.101-.105-.258-.16-.469-.164-.285.004-.488.078-.617.23-.133.153-.199.403-.195.75V0H.43v-2.684h.332l.066.368h.02a.915.915 0 0 1 .347-.305c.149-.07.317-.11.504-.11.32 0 .563.079.727.235.164.156.246.406.246.746V0zm0 0"/></symbol><symbol overflow="visible" id="c"><path style="stroke:none" d="M1.297-.285c.07.004.14 0 .207-.016a.658.658 0 0 0 .16-.035v.313c-.047.02-.113.035-.195.05-.09.012-.168.02-.23.024C.714.047.456-.223.46-.77v-1.598H.074v-.196l.387-.167.172-.575h.234v.621h.778v.317H.867V-.79c0 .164.035.289.113.375.075.09.18.133.317.129zm0 0"/></symbol><symbol overflow="visible" id="d"><path style="stroke:none" d="M.836 0H.43v-2.684h.406zM.395-3.41c-.004-.09.02-.156.07-.203a.236.236 0 0 1 .172-.067c.062 0 .117.024.168.067a.31.31 0 0 1 .07.203c-.004.094-.027.164-.07.207a.22.22 0 0 1-.168.066.208.208 0 0 1-.172-.066c-.05-.043-.074-.113-.07-.207zm0 0"/></symbol><symbol overflow="visible" id="e"><path style="stroke:none" d="M.004-2.684H.44l.586 1.532c.125.351.207.605.243.757h.02c.019-.078.062-.222.132-.425.066-.203.289-.825.664-1.864h.434L1.367.371c-.117.297-.25.512-.402.64a.879.879 0 0 1-.559.192 2.203 2.203 0 0 1-.367-.039V.836c.086.02.188.031.3.031.278 0 .477-.16.598-.472l.149-.38zm0 0"/></symbol><symbol overflow="visible" id="f"><path style="stroke:none" d="M.836 0H.43v-3.809h.406zm0 0"/></symbol><symbol overflow="visible" id="g"><path style="stroke:none" d="M2.746-1.344c-.004.442-.113.782-.332 1.028-.219.242-.523.363-.91.367a1.271 1.271 0 0 1-.64-.168 1.096 1.096 0 0 1-.43-.488 1.66 1.66 0 0 1-.153-.739c0-.433.11-.773.328-1.02.22-.241.52-.366.91-.366.372 0 .672.125.895.375.219.25.328.59.332 1.011zm-2.043 0c0 .348.067.61.203.785.137.18.34.266.606.266.265 0 .465-.086.605-.266.133-.175.203-.437.207-.785-.004-.336-.074-.597-.207-.777-.14-.176-.344-.262-.61-.266-.269.004-.468.09-.6.262-.137.176-.204.438-.204.781zm0 0"/></symbol><symbol overflow="visible" id="h"><path style="stroke:none" d="M1.504.05C1.114.048.812-.07.602-.308.387-.547.282-.887.282-1.324c0-.446.105-.79.323-1.04.211-.241.52-.366.926-.366.125 0 .254.015.383.042.129.028.23.06.305.098l-.125.344a5.195 5.195 0 0 0-.293-.09 2.288 2.288 0 0 0-.281-.035c-.547.004-.817.351-.817 1.043 0 .332.067.586.2.758.132.18.327.265.59.265.222 0 .452-.047.687-.144v.36c-.18.093-.407.136-.676.14zm0 0"/></symbol><symbol overflow="visible" id="i"><path style="stroke:none" d="M2.082 0 2-.383h-.02a1.153 1.153 0 0 1-.402.344c-.137.059-.3.086-.496.09C.812.047.605-.02.457-.156.305-.293.227-.488.23-.742c-.003-.54.43-.824 1.301-.852l.453-.015v-.164c-.004-.207-.05-.364-.136-.465-.094-.102-.239-.153-.434-.153-.226 0-.476.07-.758.207l-.125-.312a1.964 1.964 0 0 1 .906-.23c.317.003.555.074.711.214.153.145.23.371.235.68V0zm-.918-.285c.25.004.45-.067.594-.207.144-.14.215-.336.219-.586v-.242l-.407.02c-.324.01-.558.062-.699.148-.144.09-.215.226-.215.414 0 .148.043.261.133.34.086.078.211.117.375.113zm0 0"/></symbol><symbol overflow="visible" id="j"><path style="stroke:none" d="M2.266 0v-1.734c-.004-.22-.055-.38-.149-.489-.101-.105-.258-.16-.469-.164-.285.004-.488.078-.617.23-.133.157-.199.41-.195.755V0H.43v-3.809h.406v1.153a5.722 5.722 0 0 1-.02.347h.028a.808.808 0 0 1 .34-.304c.148-.075.316-.11.504-.114.328.004.574.082.738.235.164.16.246.406.246.742V0zm0 0"/></symbol><symbol overflow="visible" id="k"><path style="stroke:none" d="M2.625-2.684v.258l-.496.059c.043.058.086.137.121.226.035.094.05.196.055.309-.004.266-.094.477-.27.633-.183.16-.43.238-.738.234a.817.817 0 0 1-.227-.02C.895-.89.81-.772.812-.64c-.003.079.028.133.09.164.059.04.16.055.313.051h.472c.29.004.512.067.668.184.157.125.235.3.235.535 0 .297-.121.52-.356.676-.242.152-.59.23-1.043.234C.836 1.2.566 1.137.38 1.008A.632.632 0 0 1 .094.457c0-.164.05-.309.156-.426A.801.801 0 0 1 .691-.21.386.386 0 0 1 .52-.355a.322.322 0 0 1-.07-.227.41.41 0 0 1 .077-.258.83.83 0 0 1 .25-.21.677.677 0 0 1-.343-.294.844.844 0 0 1-.13-.468c0-.29.087-.516.266-.68.172-.156.422-.238.75-.238.137 0 .266.015.38.046zM.488.45a.358.358 0 0 0 .184.332c.121.07.297.11.523.114.34-.004.59-.055.758-.157A.486.486 0 0 0 2.2.324c-.004-.148-.047-.246-.136-.3-.09-.055-.258-.083-.504-.086H1.07C.887-.06.742-.017.64.07.536.156.485.281.489.45zm.219-2.273c-.004.191.047.332.156.426.102.097.25.144.446.144.39 0 .59-.191.593-.578-.004-.398-.203-.598-.601-.602-.192.004-.34.055-.442.157-.105.105-.156.257-.152.453zm0 0"/></symbol><symbol overflow="visible" id="l"><path style="stroke:none" d="M1.652-2.73c.118 0 .223.011.325.027l-.059.379a1.901 1.901 0 0 0-.293-.04.734.734 0 0 0-.559.266.954.954 0 0 0-.23.66V0H.43v-2.684h.336l.046.5h.02c.098-.171.215-.304.36-.402a.806.806 0 0 1 .46-.144zm0 0"/></symbol><symbol overflow="visible" id="m"><path style="stroke:none" d="M1.68-2.727c.347.004.62.125.82.364.191.242.29.582.293 1.02-.004.445-.102.784-.297 1.027-.195.242-.469.363-.816.367a1.27 1.27 0 0 1-.48-.098.858.858 0 0 1-.364-.297H.809L.723 0H.43v-3.809h.406v.926c-.004.211-.012.399-.02.559h.02c.187-.266.469-.399.844-.403zm-.059.34c-.281.004-.48.082-.601.239-.125.16-.188.43-.184.804-.004.383.059.653.187.809.125.164.329.242.606.242.25 0 .433-.09.558-.27.118-.18.18-.44.184-.785-.004-.347-.066-.605-.183-.78-.126-.169-.313-.255-.567-.259zm0 0"/></symbol><symbol overflow="visible" id="n"><path style="stroke:none" d="M.105 1.203a1.224 1.224 0 0 1-.378-.058V.812c.117.032.226.047.336.051C.186.86.28.824.34.758.398.684.426.578.43.44v-3.125h.406V.41c-.004.528-.246.79-.73.793zm.29-4.613c-.004-.09.02-.156.07-.203a.236.236 0 0 1 .172-.067c.062 0 .117.024.168.067a.31.31 0 0 1 .07.203c-.004.094-.027.164-.07.207a.22.22 0 0 1-.168.066.208.208 0 0 1-.172-.066c-.05-.043-.074-.113-.07-.207zm0 0"/></symbol><symbol overflow="visible" id="o"><path style="stroke:none" d="M2.258-.36h-.024c-.191.274-.472.407-.843.41C1.039.048.77-.07.574-.308.38-.547.281-.887.281-1.332c0-.438.098-.781.293-1.031.196-.242.465-.367.817-.367.359 0 .64.132.84.394h.03l-.019-.191-.008-.188v-1.094h.407V0h-.332zm-.813.067c.274 0 .473-.074.602-.223.121-.148.183-.39.187-.734v-.082c-.004-.375-.066-.648-.191-.813-.129-.164-.332-.246-.606-.246a.619.619 0 0 0-.546.278c-.125.187-.188.449-.188.785 0 .344.063.601.188.773.125.176.308.262.554.262zm0 0"/></symbol><symbol overflow="visible" id="p"><path style="stroke:none" d="M1.02 0 0-2.684h.438l.574 1.594c.129.371.207.613.23.723h.02c.015-.082.074-.262.168-.535.093-.274.308-.868.644-1.782h.438L1.492 0zm0 0"/></symbol><symbol overflow="visible" id="q"><path style="stroke:none" d="M2.16-.73c-.004.253-.098.445-.281.578-.188.132-.45.199-.781.203C.738.047.46-.008.266-.121v-.375C.39-.43.53-.38.68-.34c.148.04.289.059.43.055.206.004.37-.031.488-.102a.335.335 0 0 0 .172-.312.339.339 0 0 0-.137-.266c-.094-.074-.27-.16-.528-.262a2.474 2.474 0 0 1-.535-.242.595.595 0 0 1-.234-.238.577.577 0 0 1-.078-.316.6.6 0 0 1 .265-.516c.176-.125.422-.191.735-.191.285 0 .566.058.847.175l-.144.332c-.274-.109-.52-.168-.734-.168-.196 0-.34.032-.434.09-.102.063-.148.145-.148.25 0 .074.015.137.054.184.035.05.098.097.18.144.078.047.234.114.469.2.316.117.53.234.644.347.11.121.164.27.168.446zm0 0"/></symbol><symbol overflow="visible" id="r"><path style="stroke:none" d="M.813-2.684V-.94c-.004.222.046.386.148.488.098.11.254.16.469.16.28 0 .484-.074.613-.227.129-.152.195-.402.195-.753v-1.41h.407V0h-.336L2.25-.36h-.02a.796.796 0 0 1-.347.305 1.25 1.25 0 0 1-.504.106C1.047.047.805-.027.645-.184.48-.336.398-.586.402-.926v-1.758zm0 0"/></symbol><symbol overflow="visible" id="s"><path style="stroke:none" d="M1.445-.293c.27 0 .465-.07.59-.215.121-.144.188-.39.2-.734v-.09c-.005-.375-.067-.648-.192-.813-.129-.164-.332-.246-.606-.246a.619.619 0 0 0-.546.278c-.125.187-.188.449-.188.785 0 .34.063.598.188.773.125.176.308.262.554.262zm-.062.344C1.035.047.762-.07.57-.312.375-.555.281-.895.281-1.333c0-.438.098-.781.293-1.027.196-.246.465-.371.817-.371.363 0 .648.14.847.414h.024l.058-.368h.32v3.887h-.406V.055a2.159 2.159 0 0 1 .028-.414H2.23c-.19.273-.472.406-.847.41zm0 0"/></symbol><symbol overflow="visible" id="t"><path style="stroke:none" d="M2.258.77h-2.27V.45h2.27zm0 0"/></symbol><symbol overflow="visible" id="u"><path style="stroke:none" d="M1.68.05a1.27 1.27 0 0 1-.48-.097.858.858 0 0 1-.364-.297H.809c.015.16.023.305.027.446v1.101H.43v-3.887h.332l.054.368h.02a.997.997 0 0 1 .363-.317c.137-.062.297-.097.48-.097.352 0 .626.125.821.367.191.246.29.586.293 1.02-.004.445-.102.784-.297 1.027-.195.242-.469.363-.816.367zM1.62-2.386c-.277.004-.476.078-.598.23-.12.153-.183.395-.187.723v.09c-.004.383.059.653.187.809.125.164.329.242.606.242a.63.63 0 0 0 .543-.281c.129-.188.195-.446.2-.774-.005-.336-.071-.59-.2-.77a.667.667 0 0 0-.55-.269zm0 0"/></symbol><symbol overflow="visible" id="v"><path style="stroke:none" d="M2.621 0 2.13-1.574a7.859 7.859 0 0 1-.172-.656h-.02c-.07.289-.128.507-.171.66L1.258 0H.789L.055-2.684H.48c.172.676.301 1.192.395 1.543.086.356.14.594.156.711h.02c.015-.09.047-.21.086-.36a6.52 6.52 0 0 1 .105-.355l.492-1.539h.442l.48 1.54c.086.285.149.519.184.706h.02c.007-.054.023-.144.054-.269.023-.121.195-.781.508-1.977h.422L3.102 0zm0 0"/></symbol><symbol overflow="visible" id="w"><path style="stroke:none" d="M3.848 0v-1.746c-.004-.211-.051-.371-.137-.48-.094-.106-.234-.157-.426-.16-.254.003-.441.074-.558.218-.125.148-.184.375-.18.672V0H2.14v-1.746c-.004-.211-.051-.371-.141-.48-.094-.106-.234-.157-.426-.16-.258.003-.445.077-.562.23-.121.152-.18.402-.176.75V0H.43v-2.684h.332l.066.368h.02a.831.831 0 0 1 .32-.305c.137-.07.297-.11.473-.11.418 0 .691.153.82.454h.02a.891.891 0 0 1 .347-.332c.149-.079.32-.121.52-.121.3 0 .527.078.68.234.148.156.226.406.226.746V0zm0 0"/></symbol><symbol overflow="visible" id="x"><path style="stroke:none" d="M1.64-2.367H.958V0H.551v-2.367H.07v-.184l.48-.144v-.153c0-.656.285-.984.863-.988.14.004.309.031.5.086l-.105.328a1.53 1.53 0 0 0-.403-.078c-.156.004-.27.055-.34.152-.074.106-.113.27-.109.493v.171h.684zm0 0"/></symbol><symbol overflow="visible" id="y"><path style="stroke:none" d="M.832-1.371c.07-.102.176-.23.32-.395l.868-.918h.48L1.414-1.539 2.578 0h-.492l-.95-1.27-.304.266V0H.43v-3.809h.402v2.02c0 .094-.008.23-.02.418zm0 0"/></symbol></defs><path style="stroke:none;fill-rule:nonzero;fill:#fff;fill-opacity:1" d="M0 0h266.41v125.805H0zm0 0"/><path style="fill:none;stroke-width:0;stroke-linecap:butt;stroke-linejoin:miter;stroke:#fff;stroke-opacity:1;stroke-miterlimit:10" d="M-11-1h83v35h-83zm0 0" transform="matrix(3.70014 0 0 3.70014 40.702 3.7)"/><path style="fill-rule:evenodd;fill:#ffffc4;fill-opacity:1;stroke-width:.1;stroke-linecap:butt;stroke-linejoin:miter;stroke:#000;stroke-opacity:1;stroke-miterlimit:10" d="M38.89 0h6.222C46 0 46 0 46 .5v2c0 .5 0 .5-.89.5H38.89C38 3 38 3 38 2.5v-2c0-.5 0-.5.89-.5" transform="matrix(3.70014 0 0 3.70014 40.702 3.7)"/><path style="fill:none;stroke-width:.01;stroke-linecap:butt;stroke-linejoin:miter;stroke:#000;stroke-opacity:1;stroke-miterlimit:10" d="M38.89 0h6.222C46 0 46 0 46 .5v2c0 .5 0 .5-.89.5H38.89C38 3 38 3 38 2.5v-2c0-.5 0-.5.89-.5M38.89 3h6.222M46 .5v2M38 .5v2M38.89 0h6.222" transform="matrix(3.70014 0 0 3.70014 40.702 3.7)"/><g style="fill:#000;fill-opacity:1"><use xlink:href="#a" x="189.5" y="11.442"/><use xlink:href="#b" x="192.311" y="11.442"/><use xlink:href="#c" x="195.386" y="11.442"/><use xlink:href="#d" x="197.157" y="11.442"/><use xlink:href="#c" x="198.425" y="11.442"/><use xlink:href="#e" x="200.196" y="11.442"/></g><path style="fill-rule:evenodd;fill:#ffffc4;fill-opacity:1;stroke-width:.1;stroke-linecap:butt;stroke-linejoin:miter;stroke:#000;stroke-opacity:1;stroke-miterlimit:10" d="M57.889 6h6.222C65 6 65 6 65 6.5v2c0 .5 0 .5-.889.5H57.89c-.89 0-.89 0-.89-.5v-2c0-.5 0-.5.89-.5" transform="matrix(3.70014 0 0 3.70014 40.702 3.7)"/><path style="fill:none;stroke-width:.01;stroke-linecap:butt;stroke-linejoin:miter;stroke:#000;stroke-opacity:1;stroke-miterlimit:10" d="M57.889 6h6.222C65 6 65 6 65 6.5v2c0 .5 0 .5-.889.5H57.89c-.89 0-.89 0-.89-.5v-2c0-.5 0-.5.89-.5M57.889 9h6.222M65 6.5v2M57 6.5v2M57.889 6h6.222" transform="matrix(3.70014 0 0 3.70014 40.702 3.7)"/><g style="fill:#000;fill-opacity:1"><use xlink:href="#f" x="257.105" y="33.646"/><use xlink:href="#g" x="258.374" y="33.646"/><use xlink:href="#h" x="261.402" y="33.646"/><use xlink:href="#i" x="263.787" y="33.646"/><use xlink:href="#c" x="266.573" y="33.646"/><use xlink:href="#d" x="268.343" y="33.646"/><use xlink:href="#g" x="269.612" y="33.646"/><use xlink:href="#b" x="272.64" y="33.646"/></g><path style="fill-rule:evenodd;fill:#ffffc4;fill-opacity:1;stroke-width:.1;stroke-linecap:butt;stroke-linejoin:miter;stroke:#000;stroke-opacity:1;stroke-miterlimit:10" d="M19.889 6h6.222C27 6 27 6 27 6.5v2c0 .5 0 .5-.889.5H19.89c-.89 0-.89 0-.89-.5v-2c0-.5 0-.5.89-.5" transform="matrix(3.70014 0 0 3.70014 40.702 3.7)"/><path style="fill:none;stroke-width:.01;stroke-linecap:butt;stroke-linejoin:miter;stroke:#000;stroke-opacity:1;stroke-miterlimit:10" d="M19.889 6h6.222C27 6 27 6 27 6.5v2c0 .5 0 .5-.889.5H19.89c-.89 0-.89 0-.89-.5v-2c0-.5 0-.5.89-.5M19.889 9h6.222M27 6.5v2M19 6.5v2M19.889 6h6.222" transform="matrix(3.70014 0 0 3.70014 40.702 3.7)"/><g style="fill:#000;fill-opacity:1"><use xlink:href="#c" x="119.84" y="33.646"/><use xlink:href="#j" x="121.61" y="33.646"/><use xlink:href="#d" x="124.685" y="33.646"/><use xlink:href="#b" x="125.954" y="33.646"/><use xlink:href="#k" x="129.029" y="33.646"/></g><path style="fill:none;stroke-width:.1;stroke-linecap:butt;stroke-linejoin:miter;stroke:#000;stroke-opacity:1;stroke-miterlimit:10" d="M23 5v1M61 5v1M23 5h38" transform="matrix(3.70014 0 0 3.70014 40.702 3.7)"/><path style="fill-rule:evenodd;fill:#ffffc4;fill-opacity:1;stroke-width:.1;stroke-linecap:butt;stroke-linejoin:miter;stroke:#000;stroke-opacity:1;stroke-miterlimit:10" d="M36.889 12h6.222C44 12 44 12 44 12.5v2c0 .5 0 .5-.889.5H36.89c-.89 0-.89 0-.89-.5v-2c0-.5 0-.5.89-.5" transform="matrix(3.70014 0 0 3.70014 40.702 3.7)"/><path style="fill:none;stroke-width:.01;stroke-linecap:butt;stroke-linejoin:miter;stroke:#000;stroke-opacity:1;stroke-miterlimit:10" d="M36.889 12h6.222C44 12 44 12 44 12.5v2c0 .5 0 .5-.889.5H36.89c-.89 0-.89 0-.89-.5v-2c0-.5 0-.5.89-.5M36.889 15h6.222M44 12.5v2M36 12.5v2M36.889 12h6.222" transform="matrix(3.70014 0 0 3.70014 40.702 3.7)"/><g style="fill:#000;fill-opacity:1"><use xlink:href="#i" x="182.703" y="55.845"/><use xlink:href="#h" x="185.489" y="55.845"/><use xlink:href="#c" x="187.874" y="55.845"/><use xlink:href="#g" x="189.645" y="55.845"/><use xlink:href="#l" x="192.673" y="55.845"/></g><path style="fill-rule:evenodd;fill:#ffffc4;fill-opacity:1;stroke-width:.1;stroke-linecap:butt;stroke-linejoin:miter;stroke:#000;stroke-opacity:1;stroke-miterlimit:10" d="M2.889 12H9.11C10 12 10 12 10 12.5v2c0 .5 0 .5-.889.5H2.89c-.89 0-.89 0-.89-.5v-2c0-.5 0-.5.89-.5" transform="matrix(3.70014 0 0 3.70014 40.702 3.7)"/><path style="fill:none;stroke-width:.01;stroke-linecap:butt;stroke-linejoin:miter;stroke:#000;stroke-opacity:1;stroke-miterlimit:10" d="M2.889 12H9.11C10 12 10 12 10 12.5v2c0 .5 0 .5-.889.5H2.89c-.89 0-.89 0-.89-.5v-2c0-.5 0-.5.89-.5M2.889 15H9.11M10 12.5v2M2 12.5v2M2.889 12H9.11" transform="matrix(3.70014 0 0 3.70014 40.702 3.7)"/><g style="fill:#000;fill-opacity:1"><use xlink:href="#g" x="55.738" y="55.845"/><use xlink:href="#m" x="58.766" y="55.845"/><use xlink:href="#n" x="61.838" y="55.845"/><use xlink:href="#a" x="63.106" y="55.845"/><use xlink:href="#h" x="65.917" y="55.845"/><use xlink:href="#c" x="68.302" y="55.845"/></g><path style="fill:none;stroke-width:.1;stroke-linecap:butt;stroke-linejoin:miter;stroke:#000;stroke-opacity:1;stroke-miterlimit:10" d="M6 12v-1" transform="matrix(3.70014 0 0 3.70014 40.702 3.7)"/><path style="fill-rule:evenodd;fill:#d5f0f7;fill-opacity:1;stroke-width:.1;stroke-linecap:butt;stroke-linejoin:miter;stroke:#000;stroke-opacity:1;stroke-miterlimit:10" d="M-1.222 30h5.444C5 30 5 30 5 30.5v2c0 .5 0 .5-.778.5h-5.444C-2 33-2 33-2 32.5v-2c0-.5 0-.5.778-.5" transform="matrix(3.70014 0 0 3.70014 40.702 3.7)"/><path style="fill:none;stroke-width:.01;stroke-linecap:butt;stroke-linejoin:miter;stroke:#000;stroke-opacity:1;stroke-miterlimit:10" d="M-1.222 30h5.444C5 30 5 30 5 30.5v2c0 .5 0 .5-.778.5h-5.444C-2 33-2 33-2 32.5v-2c0-.5 0-.5.778-.5M-1.222 33h5.444M5 30.5v2M-2 30.5v2M-1.222 30h5.444" transform="matrix(3.70014 0 0 3.70014 40.702 3.7)"/><g style="fill:#000;fill-opacity:1"><use xlink:href="#h" x="36.945" y="122.446"/><use xlink:href="#f" x="39.33" y="122.446"/><use xlink:href="#g" x="40.598" y="122.446"/><use xlink:href="#c" x="43.627" y="122.446"/><use xlink:href="#j" x="45.397" y="122.446"/><use xlink:href="#d" x="48.472" y="122.446"/><use xlink:href="#b" x="49.74" y="122.446"/><use xlink:href="#k" x="52.815" y="122.446"/></g><path style="fill-rule:evenodd;fill:#d5f0f7;fill-opacity:1;stroke-width:.1;stroke-linecap:butt;stroke-linejoin:miter;stroke:#000;stroke-opacity:1;stroke-miterlimit:10" d="M-9.333 18h4.666C-4 18-4 18-4 18.5v2c0 .5 0 .5-.667.5h-4.666C-10 21-10 21-10 20.5v-2c0-.5 0-.5.667-.5" transform="matrix(3.70014 0 0 3.70014 40.702 3.7)"/><path style="fill:none;stroke-width:.01;stroke-linecap:butt;stroke-linejoin:miter;stroke:#000;stroke-opacity:1;stroke-miterlimit:10" d="M-9.333 18h4.666C-4 18-4 18-4 18.5v2c0 .5 0 .5-.667.5h-4.666C-10 21-10 21-10 20.5v-2c0-.5 0-.5.667-.5M-9.333 21h4.666M-4 18.5v2M-10 18.5v2M-9.333 18h4.666" transform="matrix(3.70014 0 0 3.70014 40.702 3.7)"/><g style="fill:#000;fill-opacity:1"><use xlink:href="#o" x="7.371" y="78.048"/><use xlink:href="#a" x="10.443" y="78.048"/><use xlink:href="#p" x="13.254" y="78.048"/><use xlink:href="#d" x="15.765" y="78.048"/><use xlink:href="#h" x="17.033" y="78.048"/><use xlink:href="#a" x="19.418" y="78.048"/></g><path style="fill-rule:evenodd;fill:#d5f0f7;fill-opacity:1;stroke-width:.1;stroke-linecap:butt;stroke-linejoin:miter;stroke:#000;stroke-opacity:1;stroke-miterlimit:10" d="M-9.333 24h4.666C-4 24-4 24-4 24.5v2c0 .5 0 .5-.667.5h-4.666C-10 27-10 27-10 26.5v-2c0-.5 0-.5.667-.5" transform="matrix(3.70014 0 0 3.70014 40.702 3.7)"/><path style="fill:none;stroke-width:.01;stroke-linecap:butt;stroke-linejoin:miter;stroke:#000;stroke-opacity:1;stroke-miterlimit:10" d="M-9.333 24h4.666C-4 24-4 24-4 24.5v2c0 .5 0 .5-.667.5h-4.666C-10 27-10 27-10 26.5v-2c0-.5 0-.5.667-.5M-9.333 27h4.666M-4 24.5v2M-10 24.5v2M-9.333 24h4.666" transform="matrix(3.70014 0 0 3.70014 40.702 3.7)"/><g style="fill:#000;fill-opacity:1"><use xlink:href="#o" x="9.215" y="100.247"/><use xlink:href="#g" x="12.286" y="100.247"/><use xlink:href="#g" x="15.314" y="100.247"/><use xlink:href="#l" x="18.342" y="100.247"/></g><path style="fill-rule:evenodd;fill:#d5f0f7;fill-opacity:1;stroke-width:.1;stroke-linecap:butt;stroke-linejoin:miter;stroke:#000;stroke-opacity:1;stroke-miterlimit:10" d="M8 18h7c1 0 1 0 1 .5v2c0 .5 0 .5-1 .5H8c-1 0-1 0-1-.5v-2c0-.5 0-.5 1-.5" transform="matrix(3.70014 0 0 3.70014 40.702 3.7)"/><path style="fill:none;stroke-width:.01;stroke-linecap:butt;stroke-linejoin:miter;stroke:#000;stroke-opacity:1;stroke-miterlimit:10" d="M8 18h7c1 0 1 0 1 .5v2c0 .5 0 .5-1 .5H8c-1 0-1 0-1-.5v-2c0-.5 0-.5 1-.5M8 21h7M16 18.5v2M7 18.5v2M8 18h7" transform="matrix(3.70014 0 0 3.70014 40.702 3.7)"/><g style="fill:#000;fill-opacity:1"><use xlink:href="#f" x="70.32" y="78.048"/><use xlink:href="#d" x="71.589" y="78.048"/><use xlink:href="#k" x="72.857" y="78.048"/><use xlink:href="#j" x="75.603" y="78.048"/><use xlink:href="#c" x="78.678" y="78.048"/><use xlink:href="#q" x="80.449" y="78.048"/><use xlink:href="#g" x="82.841" y="78.048"/><use xlink:href="#r" x="85.869" y="78.048"/><use xlink:href="#l" x="88.944" y="78.048"/><use xlink:href="#h" x="90.989" y="78.048"/><use xlink:href="#a" x="93.374" y="78.048"/></g><path style="fill-rule:evenodd;fill:#d5f0f7;fill-opacity:1;stroke-width:.1;stroke-linecap:butt;stroke-linejoin:miter;stroke:#000;stroke-opacity:1;stroke-miterlimit:10" d="M-1.222 18h5.444C5 18 5 18 5 18.5v2c0 .5 0 .5-.778.5h-5.444C-2 21-2 21-2 20.5v-2c0-.5 0-.5.778-.5" transform="matrix(3.70014 0 0 3.70014 40.702 3.7)"/><path style="fill:none;stroke-width:.01;stroke-linecap:butt;stroke-linejoin:miter;stroke:#000;stroke-opacity:1;stroke-miterlimit:10" d="M-1.222 18h5.444C5 18 5 18 5 18.5v2c0 .5 0 .5-.778.5h-5.444C-2 21-2 21-2 20.5v-2c0-.5 0-.5.778-.5M-1.222 21h5.444M5 18.5v2M-2 18.5v2M-1.222 18h5.444" transform="matrix(3.70014 0 0 3.70014 40.702 3.7)"/><g style="fill:#000;fill-opacity:1"><use xlink:href="#f" x="39.742" y="78.048"/><use xlink:href="#d" x="41.01" y="78.048"/><use xlink:href="#s" x="42.279" y="78.048"/><use xlink:href="#r" x="45.35" y="78.048"/><use xlink:href="#d" x="48.425" y="78.048"/><use xlink:href="#o" x="49.694" y="78.048"/></g><path style="fill-rule:evenodd;fill:#d5f0f7;fill-opacity:1;stroke-width:.1;stroke-linecap:butt;stroke-linejoin:miter;stroke:#000;stroke-opacity:1;stroke-miterlimit:10" d="M19.223 18h8.555c1.221 0 1.221 0 1.221.5v2c0 .5 0 .5-1.221.5h-8.555C18 21 18 21 18 20.5v-2c0-.5 0-.5 1.223-.5" transform="matrix(3.70014 0 0 3.70014 40.702 3.7)"/><path style="fill:none;stroke-width:.01;stroke-linecap:butt;stroke-linejoin:miter;stroke:#000;stroke-opacity:1;stroke-miterlimit:10" d="M19.223 18h8.555c1.221 0 1.221 0 1.221.5v2c0 .5 0 .5-1.221.5h-8.555C18 21 18 21 18 20.5v-2c0-.5 0-.5 1.223-.5M19.223 21h8.555M29 18.5v2M18 18.5v2M19.223 18h8.555" transform="matrix(3.70014 0 0 3.70014 40.702 3.7)"/><g style="fill:#000;fill-opacity:1"><use xlink:href="#f" x="109.117" y="78.048"/><use xlink:href="#d" x="110.385" y="78.048"/><use xlink:href="#q" x="111.654" y="78.048"/><use xlink:href="#c" x="114.046" y="78.048"/><use xlink:href="#a" x="115.816" y="78.048"/><use xlink:href="#o" x="118.628" y="78.048"/><use xlink:href="#t" x="121.699" y="78.048"/><use xlink:href="#h" x="123.947" y="78.048"/><use xlink:href="#g" x="126.332" y="78.048"/><use xlink:href="#b" x="129.36" y="78.048"/><use xlink:href="#c" x="132.435" y="78.048"/><use xlink:href="#i" x="134.205" y="78.048"/><use xlink:href="#d" x="136.991" y="78.048"/><use xlink:href="#b" x="138.259" y="78.048"/><use xlink:href="#a" x="141.334" y="78.048"/><use xlink:href="#l" x="144.146" y="78.048"/></g><path style="fill-rule:evenodd;fill:#d5f0f7;fill-opacity:1;stroke-width:.1;stroke-linecap:butt;stroke-linejoin:miter;stroke:#000;stroke-opacity:1;stroke-miterlimit:10" d="M-1.222 24h5.444C5 24 5 24 5 24.5v2c0 .5 0 .5-.778.5h-5.444C-2 27-2 27-2 26.5v-2c0-.5 0-.5.778-.5" transform="matrix(3.70014 0 0 3.70014 40.702 3.7)"/><path style="fill:none;stroke-width:.01;stroke-linecap:butt;stroke-linejoin:miter;stroke:#000;stroke-opacity:1;stroke-miterlimit:10" d="M-1.222 24h5.444C5 24 5 24 5 24.5v2c0 .5 0 .5-.778.5h-5.444C-2 27-2 27-2 26.5v-2c0-.5 0-.5.778-.5M-1.222 27h5.444M5 24.5v2M-2 24.5v2M-1.222 24h5.444" transform="matrix(3.70014 0 0 3.70014 40.702 3.7)"/><g style="fill:#000;fill-opacity:1"><use xlink:href="#q" x="38.93" y="100.247"/><use xlink:href="#g" x="41.322" y="100.247"/><use xlink:href="#r" x="44.35" y="100.247"/><use xlink:href="#b" x="47.425" y="100.247"/><use xlink:href="#o" x="50.5" y="100.247"/></g><path style="fill-rule:evenodd;fill:#d5f0f7;fill-opacity:1;stroke-width:.1;stroke-linecap:butt;stroke-linejoin:miter;stroke:#000;stroke-opacity:1;stroke-miterlimit:10" d="M8 30h7c1 0 1 0 1 .5v2c0 .5 0 .5-1 .5H8c-1 0-1 0-1-.5v-2c0-.5 0-.5 1-.5" transform="matrix(3.70014 0 0 3.70014 40.702 3.7)"/><path style="fill:none;stroke-width:.01;stroke-linecap:butt;stroke-linejoin:miter;stroke:#000;stroke-opacity:1;stroke-miterlimit:10" d="M8 30h7c1 0 1 0 1 .5v2c0 .5 0 .5-1 .5H8c-1 0-1 0-1-.5v-2c0-.5 0-.5 1-.5M8 33h7M16 30.5v2M7 30.5v2M8 30h7" transform="matrix(3.70014 0 0 3.70014 40.702 3.7)"/><g style="fill:#000;fill-opacity:1"><use xlink:href="#q" x="71.602" y="122.446"/><use xlink:href="#r" x="73.994" y="122.446"/><use xlink:href="#u" x="77.069" y="122.446"/><use xlink:href="#u" x="80.14" y="122.446"/><use xlink:href="#g" x="83.211" y="122.446"/><use xlink:href="#l" x="86.24" y="122.446"/><use xlink:href="#c" x="88.285" y="122.446"/><use xlink:href="#a" x="90.055" y="122.446"/><use xlink:href="#l" x="92.867" y="122.446"/></g><path style="fill-rule:evenodd;fill:#d5f0f7;fill-opacity:1;stroke-width:.1;stroke-linecap:butt;stroke-linejoin:miter;stroke:#000;stroke-opacity:1;stroke-miterlimit:10" d="M8 24h7c1 0 1 0 1 .5v2c0 .5 0 .5-1 .5H8c-1 0-1 0-1-.5v-2c0-.5 0-.5 1-.5" transform="matrix(3.70014 0 0 3.70014 40.702 3.7)"/><path style="fill:none;stroke-width:.01;stroke-linecap:butt;stroke-linejoin:miter;stroke:#000;stroke-opacity:1;stroke-miterlimit:10" d="M8 24h7c1 0 1 0 1 .5v2c0 .5 0 .5-1 .5H8c-1 0-1 0-1-.5v-2c0-.5 0-.5 1-.5M8 27h7M16 24.5v2M7 24.5v2M8 24h7" transform="matrix(3.70014 0 0 3.70014 40.702 3.7)"/><g style="fill:#000;fill-opacity:1"><use xlink:href="#v" x="73.918" y="100.247"/><use xlink:href="#a" x="77.817" y="100.247"/><use xlink:href="#i" x="80.628" y="100.247"/><use xlink:href="#u" x="83.414" y="100.247"/><use xlink:href="#g" x="86.485" y="100.247"/><use xlink:href="#b" x="89.513" y="100.247"/></g><path style="fill-rule:evenodd;fill:#d5f0f7;fill-opacity:1;stroke-width:.1;stroke-linecap:butt;stroke-linejoin:miter;stroke:#000;stroke-opacity:1;stroke-miterlimit:10" d="M-9.333 30h4.666C-4 30-4 30-4 30.5v2c0 .5 0 .5-.667.5h-4.666C-10 33-10 33-10 32.5v-2c0-.5 0-.5.667-.5" transform="matrix(3.70014 0 0 3.70014 40.702 3.7)"/><path style="fill:none;stroke-width:.01;stroke-linecap:butt;stroke-linejoin:miter;stroke:#000;stroke-opacity:1;stroke-miterlimit:10" d="M-9.333 30h4.666C-4 30-4 30-4 30.5v2c0 .5 0 .5-.667.5h-4.666C-10 33-10 33-10 32.5v-2c0-.5 0-.5.667-.5M-9.333 33h4.666M-4 30.5v2M-10 30.5v2M-9.333 30h4.666" transform="matrix(3.70014 0 0 3.70014 40.702 3.7)"/><g style="fill:#000;fill-opacity:1"><use xlink:href="#v" x="5.68" y="122.446"/><use xlink:href="#d" x="9.579" y="122.446"/><use xlink:href="#b" x="10.847" y="122.446"/><use xlink:href="#o" x="13.922" y="122.446"/><use xlink:href="#g" x="16.993" y="122.446"/><use xlink:href="#v" x="20.021" y="122.446"/></g><path style="fill-rule:evenodd;fill:#a6cfda;fill-opacity:1;stroke-width:.1;stroke-linecap:butt;stroke-linejoin:miter;stroke:#000;stroke-opacity:1;stroke-miterlimit:10" d="M19.223 24h8.555c1.221 0 1.221 0 1.221.5v2c0 .5 0 .5-1.221.5h-8.555C18 27 18 27 18 26.5v-2c0-.5 0-.5 1.223-.5" transform="matrix(3.70014 0 0 3.70014 40.702 3.7)"/><path style="fill:none;stroke-width:.01;stroke-linecap:butt;stroke-linejoin:miter;stroke:#000;stroke-opacity:1;stroke-miterlimit:10" d="M19.223 24h8.555c1.221 0 1.221 0 1.221.5v2c0 .5 0 .5-1.221.5h-8.555C18 27 18 27 18 26.5v-2c0-.5 0-.5 1.223-.5M19.223 27h8.555M29 24.5v2M18 24.5v2M19.223 24h8.555" transform="matrix(3.70014 0 0 3.70014 40.702 3.7)"/><g style="fill:#000;fill-opacity:1"><use xlink:href="#l" x="112.984" y="100.247"/><use xlink:href="#g" x="115.03" y="100.247"/><use xlink:href="#g" x="118.058" y="100.247"/><use xlink:href="#w" x="121.086" y="100.247"/><use xlink:href="#t" x="125.747" y="100.247"/><use xlink:href="#g" x="127.995" y="100.247"/><use xlink:href="#m" x="131.023" y="100.247"/><use xlink:href="#n" x="134.094" y="100.247"/><use xlink:href="#a" x="135.362" y="100.247"/><use xlink:href="#h" x="138.174" y="100.247"/><use xlink:href="#c" x="140.558" y="100.247"/></g><path style="fill-rule:evenodd;fill:#a6cfda;fill-opacity:1;stroke-width:.1;stroke-linecap:butt;stroke-linejoin:miter;stroke:#000;stroke-opacity:1;stroke-miterlimit:10" d="M19.223 30h8.555c1.221 0 1.221 0 1.221.5v2c0 .5 0 .5-1.221.5h-8.555C18 33 18 33 18 32.5v-2c0-.5 0-.5 1.223-.5" transform="matrix(3.70014 0 0 3.70014 40.702 3.7)"/><path style="fill:none;stroke-width:.01;stroke-linecap:butt;stroke-linejoin:miter;stroke:#000;stroke-opacity:1;stroke-miterlimit:10" d="M19.223 30h8.555c1.221 0 1.221 0 1.221.5v2c0 .5 0 .5-1.221.5h-8.555C18 33 18 33 18 32.5v-2c0-.5 0-.5 1.223-.5M19.223 33h8.555M29 30.5v2M18 30.5v2M19.223 30h8.555" transform="matrix(3.70014 0 0 3.70014 40.702 3.7)"/><g style="fill:#000;fill-opacity:1"><use xlink:href="#q" x="115.242" y="122.446"/><use xlink:href="#d" x="117.634" y="122.446"/><use xlink:href="#c" x="118.903" y="122.446"/><use xlink:href="#a" x="120.673" y="122.446"/><use xlink:href="#t" x="123.484" y="122.446"/><use xlink:href="#g" x="125.732" y="122.446"/><use xlink:href="#m" x="128.76" y="122.446"/><use xlink:href="#n" x="131.831" y="122.446"/><use xlink:href="#a" x="133.1" y="122.446"/><use xlink:href="#h" x="135.911" y="122.446"/><use xlink:href="#c" x="138.296" y="122.446"/></g><path style="fill:none;stroke-width:.1;stroke-linecap:butt;stroke-linejoin:miter;stroke:#000;stroke-opacity:1;stroke-miterlimit:10" d="M-4 31.5h2M-4 25.5h2M-4 19.5h2M-3 31.5V17M16 31.5h2M16 25.5h2M16 19.5h2M17 31.5V17M-3 17h20M6 15v2" transform="matrix(3.70014 0 0 3.70014 40.702 3.7)"/><path style="fill-rule:evenodd;fill:#a6cfda;fill-opacity:1;stroke-width:.1;stroke-linecap:butt;stroke-linejoin:miter;stroke:#000;stroke-opacity:1;stroke-miterlimit:10" d="M36.889 18h6.222C44 18 44 18 44 18.5v2c0 .5 0 .5-.889.5H36.89c-.89 0-.89 0-.89-.5v-2c0-.5 0-.5.89-.5" transform="matrix(3.70014 0 0 3.70014 40.702 3.7)"/><path style="fill:none;stroke-width:.01;stroke-linecap:butt;stroke-linejoin:miter;stroke:#000;stroke-opacity:1;stroke-miterlimit:10" d="M36.889 18h6.222C44 18 44 18 44 18.5v2c0 .5 0 .5-.889.5H36.89c-.89 0-.89 0-.89-.5v-2c0-.5 0-.5.89-.5M36.889 21h6.222M44 18.5v2M36 18.5v2M36.889 18h6.222" transform="matrix(3.70014 0 0 3.70014 40.702 3.7)"/><g style="fill:#000;fill-opacity:1"><use xlink:href="#u" x="180.496" y="78.048"/><use xlink:href="#a" x="183.568" y="78.048"/><use xlink:href="#l" x="186.379" y="78.048"/><use xlink:href="#q" x="188.424" y="78.048"/><use xlink:href="#g" x="190.816" y="78.048"/><use xlink:href="#b" x="193.844" y="78.048"/></g><path style="fill-rule:evenodd;fill:#d5f0f7;fill-opacity:1;stroke-width:.1;stroke-linecap:butt;stroke-linejoin:miter;stroke:#000;stroke-opacity:1;stroke-miterlimit:10" d="M31.889 24h6.222c.89 0 .89 0 .89.5v2c0 .5 0 .5-.89.5H31.89C31 27 31 27 31 26.5v-2c0-.5 0-.5.889-.5" transform="matrix(3.70014 0 0 3.70014 40.702 3.7)"/><path style="fill:none;stroke-width:.01;stroke-linecap:butt;stroke-linejoin:miter;stroke:#000;stroke-opacity:1;stroke-miterlimit:10" d="M31.889 24h6.222c.89 0 .89 0 .89.5v2c0 .5 0 .5-.89.5H31.89C31 27 31 27 31 26.5v-2c0-.5 0-.5.889-.5M31.889 27h6.222M39 24.5v2M31 24.5v2M31.889 24h6.222" transform="matrix(3.70014 0 0 3.70014 40.702 3.7)"/><g style="fill:#000;fill-opacity:1"><use xlink:href="#x" x="162.188" y="100.247"/><use xlink:href="#a" x="163.886" y="100.247"/><use xlink:href="#w" x="166.697" y="100.247"/><use xlink:href="#i" x="171.358" y="100.247"/><use xlink:href="#f" x="174.144" y="100.247"/><use xlink:href="#a" x="175.413" y="100.247"/></g><path style="fill-rule:evenodd;fill:#d5f0f7;fill-opacity:1;stroke-width:.1;stroke-linecap:butt;stroke-linejoin:miter;stroke:#000;stroke-opacity:1;stroke-miterlimit:10" d="M41.889 24h6.222C49 24 49 24 49 24.5v2c0 .5 0 .5-.89.5H41.89c-.89 0-.89 0-.89-.5v-2c0-.5 0-.5.89-.5" transform="matrix(3.70014 0 0 3.70014 40.702 3.7)"/><path style="fill:none;stroke-width:.01;stroke-linecap:butt;stroke-linejoin:miter;stroke:#000;stroke-opacity:1;stroke-miterlimit:10" d="M41.889 24h6.222C49 24 49 24 49 24.5v2c0 .5 0 .5-.89.5H41.89c-.89 0-.89 0-.89-.5v-2c0-.5 0-.5.89-.5M41.889 27h6.222M49 24.5v2M41 24.5v2M41.889 24h6.222" transform="matrix(3.70014 0 0 3.70014 40.702 3.7)"/><g style="fill:#000;fill-opacity:1"><use xlink:href="#w" x="201.445" y="100.247"/><use xlink:href="#i" x="206.107" y="100.247"/><use xlink:href="#f" x="208.893" y="100.247"/><use xlink:href="#a" x="210.161" y="100.247"/></g><path style="fill:none;stroke-width:.1;stroke-linecap:butt;stroke-linejoin:miter;stroke:#000;stroke-opacity:1;stroke-miterlimit:10" d="m35 24 5-3M45 24l-5-3M40 15v3M40 11H6M40 12v-1M23 11V9" transform="matrix(3.70014 0 0 3.70014 40.702 3.7)"/><path style="fill-rule:evenodd;fill:#71dbf7;fill-opacity:1;stroke-width:.1;stroke-linecap:butt;stroke-linejoin:miter;stroke:#000;stroke-opacity:1;stroke-miterlimit:10" d="M60.334 24h9.332C71 24 71 24 71 24.5v2c0 .5 0 .5-1.334.5h-9.332C59 27 59 27 59 26.5v-2c0-.5 0-.5 1.334-.5" transform="matrix(3.70014 0 0 3.70014 40.702 3.7)"/><path style="fill:none;stroke-width:.01;stroke-linecap:butt;stroke-linejoin:miter;stroke:#000;stroke-opacity:1;stroke-miterlimit:10" d="M60.334 24h9.332C71 24 71 24 71 24.5v2c0 .5 0 .5-1.334.5h-9.332C59 27 59 27 59 26.5v-2c0-.5 0-.5 1.334-.5M60.334 27h9.332M71 24.5v2M59 24.5v2M60.334 24h9.332" transform="matrix(3.70014 0 0 3.70014 40.702 3.7)"/><g style="fill:#000;fill-opacity:1"><use xlink:href="#o" x="262.727" y="100.247"/><use xlink:href="#a" x="265.798" y="100.247"/><use xlink:href="#x" x="268.609" y="100.247"/><use xlink:href="#d" x="270.308" y="100.247"/><use xlink:href="#b" x="271.576" y="100.247"/><use xlink:href="#d" x="274.651" y="100.247"/><use xlink:href="#c" x="275.919" y="100.247"/><use xlink:href="#d" x="277.69" y="100.247"/><use xlink:href="#g" x="278.958" y="100.247"/><use xlink:href="#b" x="281.986" y="100.247"/><use xlink:href="#t" x="285.061" y="100.247"/><use xlink:href="#m" x="287.309" y="100.247"/><use xlink:href="#f" x="290.38" y="100.247"/><use xlink:href="#g" x="291.648" y="100.247"/><use xlink:href="#h" x="294.676" y="100.247"/><use xlink:href="#y" x="297.061" y="100.247"/></g><path style="fill-rule:evenodd;fill:#d5f0f7;fill-opacity:1;stroke-width:.1;stroke-linecap:butt;stroke-linejoin:miter;stroke:#000;stroke-opacity:1;stroke-miterlimit:10" d="M51.111 12h7.778C60 12 60 12 60 12.5v2c0 .5 0 .5-1.111.5H51.11C50 15 50 15 50 14.5v-2c0-.5 0-.5 1.111-.5" transform="matrix(3.70014 0 0 3.70014 40.702 3.7)"/><path style="fill:none;stroke-width:.01;stroke-linecap:butt;stroke-linejoin:miter;stroke:#000;stroke-opacity:1;stroke-miterlimit:10" d="M51.111 12h7.778C60 12 60 12 60 12.5v2c0 .5 0 .5-1.111.5H51.11C50 15 50 15 50 14.5v-2c0-.5 0-.5 1.111-.5M51.111 15h7.778M60 12.5v2M50 12.5v2M51.111 12h7.778" transform="matrix(3.70014 0 0 3.70014 40.702 3.7)"/><g style="fill:#000;fill-opacity:1"><use xlink:href="#o" x="228.516" y="55.845"/><use xlink:href="#i" x="231.587" y="55.845"/><use xlink:href="#l" x="234.373" y="55.845"/><use xlink:href="#y" x="236.418" y="55.845"/><use xlink:href="#t" x="239.049" y="55.845"/><use xlink:href="#f" x="241.296" y="55.845"/><use xlink:href="#g" x="242.565" y="55.845"/><use xlink:href="#h" x="245.593" y="55.845"/><use xlink:href="#i" x="247.978" y="55.845"/><use xlink:href="#c" x="250.763" y="55.845"/><use xlink:href="#d" x="252.534" y="55.845"/><use xlink:href="#g" x="253.802" y="55.845"/><use xlink:href="#b" x="256.83" y="55.845"/></g><path style="fill-rule:evenodd;fill:#d5f0f7;fill-opacity:1;stroke-width:.1;stroke-linecap:butt;stroke-linejoin:miter;stroke:#000;stroke-opacity:1;stroke-miterlimit:10" d="M66.555 18h3.89C71 18 71 18 71 18.5v2c0 .5 0 .5-.556.5h-3.889C66 21 66 21 66 20.5v-2c0-.5 0-.5.555-.5" transform="matrix(3.70014 0 0 3.70014 40.702 3.7)"/><path style="fill:none;stroke-width:.01;stroke-linecap:butt;stroke-linejoin:miter;stroke:#000;stroke-opacity:1;stroke-miterlimit:10" d="M66.555 18h3.89C71 18 71 18 71 18.5v2c0 .5 0 .5-.556.5h-3.889C66 21 66 21 66 20.5v-2c0-.5 0-.5.555-.5M66.555 21h3.89M71 18.5v2M66 18.5v2M66.555 18h3.89" transform="matrix(3.70014 0 0 3.70014 40.702 3.7)"/><g style="fill:#000;fill-opacity:1"><use xlink:href="#l" x="287.781" y="78.048"/><use xlink:href="#g" x="289.826" y="78.048"/><use xlink:href="#g" x="292.854" y="78.048"/><use xlink:href="#w" x="295.883" y="78.048"/></g><path style="fill-rule:evenodd;fill:#d5f0f7;fill-opacity:1;stroke-width:.1;stroke-linecap:butt;stroke-linejoin:miter;stroke:#000;stroke-opacity:1;stroke-miterlimit:10" d="M66.555 12h3.89C71 12 71 12 71 12.5v2c0 .5 0 .5-.556.5h-3.889C66 15 66 15 66 14.5v-2c0-.5 0-.5.555-.5" transform="matrix(3.70014 0 0 3.70014 40.702 3.7)"/><path style="fill:none;stroke-width:.01;stroke-linecap:butt;stroke-linejoin:miter;stroke:#000;stroke-opacity:1;stroke-miterlimit:10" d="M66.555 12h3.89C71 12 71 12 71 12.5v2c0 .5 0 .5-.556.5h-3.889C66 15 66 15 66 14.5v-2c0-.5 0-.5.555-.5M66.555 15h3.89M71 12.5v2M66 12.5v2M66.555 12h3.89" transform="matrix(3.70014 0 0 3.70014 40.702 3.7)"/><g style="fill:#000;fill-opacity:1"><use xlink:href="#q" x="290.043" y="55.845"/><use xlink:href="#d" x="292.435" y="55.845"/><use xlink:href="#c" x="293.703" y="55.845"/><use xlink:href="#a" x="295.474" y="55.845"/></g><path style="fill:none;stroke-width:.1;stroke-linecap:butt;stroke-linejoin:miter;stroke:#000;stroke-opacity:1;stroke-miterlimit:10" d="M65 11H55M55 15l5 3M61 11V9M42 5V3" transform="matrix(3.70014 0 0 3.70014 40.702 3.7)"/><path style="fill-rule:evenodd;fill:#d5f0f7;fill-opacity:1;stroke-width:.1;stroke-linecap:butt;stroke-linejoin:miter;stroke:#000;stroke-opacity:1;stroke-miterlimit:10" d="M46.888 18h6.223C54 18 54 18 54 18.5v2c0 .5 0 .5-.89.5h-6.222c-.887 0-.887 0-.887-.5v-2c0-.5 0-.5.887-.5" transform="matrix(3.70014 0 0 3.70014 40.702 3.7)"/><path style="fill:none;stroke-width:.01;stroke-linecap:butt;stroke-linejoin:miter;stroke:#000;stroke-opacity:1;stroke-miterlimit:10" d="M46.888 18h6.223C54 18 54 18 54 18.5v2c0 .5 0 .5-.89.5h-6.222c-.887 0-.887 0-.887-.5v-2c0-.5 0-.5.887-.5M46.888 21h6.223M54 18.5v2M46 18.5v2M46.888 18h6.223" transform="matrix(3.70014 0 0 3.70014 40.702 3.7)"/><g style="fill:#000;fill-opacity:1"><use xlink:href="#o" x="212.938" y="78.048"/><use xlink:href="#i" x="216.009" y="78.048"/><use xlink:href="#l" x="218.795" y="78.048"/><use xlink:href="#y" x="220.84" y="78.048"/><use xlink:href="#t" x="223.471" y="78.048"/><use xlink:href="#l" x="225.718" y="78.048"/><use xlink:href="#g" x="227.763" y="78.048"/><use xlink:href="#g" x="230.791" y="78.048"/><use xlink:href="#w" x="233.819" y="78.048"/></g><path style="fill-rule:evenodd;fill:#d5f0f7;fill-opacity:1;stroke-width:.1;stroke-linecap:butt;stroke-linejoin:miter;stroke:#000;stroke-opacity:1;stroke-miterlimit:10" d="M56.889 18h6.222c.89 0 .89 0 .89.5v2c0 .5 0 .5-.89.5H56.89C56 21 56 21 56 20.5v-2c0-.5 0-.5.889-.5" transform="matrix(3.70014 0 0 3.70014 40.702 3.7)"/><path style="fill:none;stroke-width:.01;stroke-linecap:butt;stroke-linejoin:miter;stroke:#000;stroke-opacity:1;stroke-miterlimit:10" d="M56.889 18h6.222c.89 0 .89 0 .89.5v2c0 .5 0 .5-.89.5H56.89C56 21 56 21 56 20.5v-2c0-.5 0-.5.889-.5M56.889 21h6.222M64 18.5v2M56 18.5v2M56.889 18h6.222" transform="matrix(3.70014 0 0 3.70014 40.702 3.7)"/><g style="fill:#000;fill-opacity:1"><use xlink:href="#o" x="252.199" y="78.048"/><use xlink:href="#i" x="255.271" y="78.048"/><use xlink:href="#l" x="258.057" y="78.048"/><use xlink:href="#y" x="260.102" y="78.048"/><use xlink:href="#t" x="262.732" y="78.048"/><use xlink:href="#q" x="264.98" y="78.048"/><use xlink:href="#d" x="267.372" y="78.048"/><use xlink:href="#c" x="268.64" y="78.048"/><use xlink:href="#a" x="270.411" y="78.048"/></g><path style="fill:none;stroke-width:.1;stroke-linecap:butt;stroke-linejoin:miter;stroke:#000;stroke-opacity:1;stroke-miterlimit:10" d="m55 15-5 3M65 24V11M55 12v-1M66 13.563h-1M66 19.544h-1" transform="matrix(3.70014 0 0 3.70014 40.702 3.7)"/></svg>