<svg xmlns="http://www.w3.org/2000/svg" xmlns:xlink="http://www.w3.org/1999/xlink" width="307pt" height="130pt" viewBox="0 0 307 130"><defs><symbol overflow="visible" id="a"><path style="stroke:none" d="M3.246.102c-.824-.004-1.476-.25-1.95-.75-.48-.5-.718-1.196-.714-2.09-.004-.89.219-1.606.664-2.137.442-.527 1.035-.79 1.781-.793.696.004 1.246.234 1.657.691.402.461.605 1.063.609 1.813v.535H1.457c.016.656.18 1.152.496 1.488.309.34.75.508 1.32.508.598 0 1.192-.125 1.778-.379v.754a4.304 4.304 0 0 1-.844.274 5.121 5.121 0 0 1-.96.086zm-.23-5.063c-.45.004-.805.149-1.07.438-.266.293-.423.695-.47 1.207h2.91c-.003-.532-.12-.938-.355-1.22-.238-.28-.578-.421-1.015-.425zm0 0"/></symbol><symbol overflow="visible" id="b"><path style="stroke:none" d="M4.703 0v-3.602c-.004-.449-.11-.785-.312-1.011-.211-.219-.532-.332-.97-.336-.581.004-1.007.16-1.276.472-.274.313-.41.832-.407 1.559V0H.895v-5.566h.683l.137.761h.043c.172-.273.41-.484.722-.636a2.433 2.433 0 0 1 1.043-.227c.668.004 1.176.164 1.516.488.336.325.504.844.508 1.551V0zm0 0"/></symbol><symbol overflow="visible" id="c"><path style="stroke:none" d="M2.691-.594c.145.004.29-.008.43-.031.137-.02.246-.043.332-.07v.644a1.724 1.724 0 0 1-.406.11c-.18.027-.34.039-.477.043C1.488.098.95-.465.953-1.598V-4.91H.156v-.406l.797-.352.356-1.187h.488v1.289h1.617v.656H1.797v3.273c-.004.34.074.598.238.774.156.183.375.273.656.27zm0 0"/></symbol><symbol overflow="visible" id="d"><path style="stroke:none" d="M1.738 0H.895v-5.566h.843zM.824-7.074c-.004-.188.043-.328.14-.422a.513.513 0 0 1 .356-.137c.133.004.25.051.348.137.098.094.148.234.148.422 0 .195-.05.336-.148.426a.468.468 0 0 1-.348.136.451.451 0 0 1-.355-.136c-.098-.09-.145-.23-.14-.426zm0 0"/></symbol><symbol overflow="visible" id="e"><path style="stroke:none" d="M.012-5.566h.902l1.219 3.175c.265.727.43 1.25.496 1.567h.043c.043-.168.133-.461.277-.883.137-.414.598-1.703 1.38-3.86h.901L2.84.774c-.238.625-.516 1.067-.832 1.332-.317.258-.703.391-1.164.395a3.829 3.829 0 0 1-.762-.09v-.672c.184.035.39.055.625.059.574-.004.988-.328 1.238-.973l.309-.793zm0 0"/></symbol><symbol overflow="visible" id="f"><path style="stroke:none" d="M1.738 0H.895v-7.902h.843zm0 0"/></symbol><symbol overflow="visible" id="g"><path style="stroke:none" d="M5.7-2.79c-.005.911-.235 1.622-.688 2.13-.461.508-1.09.758-1.895.762-.5-.004-.941-.118-1.324-.348a2.298 2.298 0 0 1-.895-1.008c-.214-.437-.32-.95-.316-1.535-.004-.906.223-1.61.68-2.117.453-.504 1.086-.758 1.89-.762.778.004 1.395.262 1.856.777.457.52.687 1.22.691 2.102zm-4.243 0c-.004.712.137 1.255.426 1.626.281.375.699.562 1.254.559.547.003.968-.184 1.258-.555.285-.367.425-.91.43-1.63-.005-.702-.145-1.237-.43-1.608-.29-.364-.711-.547-1.266-.551-.555.004-.973.183-1.25.543-.285.363-.426.902-.422 1.617zm0 0"/></symbol><symbol overflow="visible" id="h"><path style="stroke:none" d="M3.117.102c-.804-.004-1.43-.247-1.87-.743C.8-1.133.577-1.836.581-2.746c-.004-.93.223-1.649.672-2.16.45-.504 1.086-.758 1.918-.762.265.004.535.031.805.086a2.7 2.7 0 0 1 .628.203l-.257.719a5.693 5.693 0 0 0-.614-.188 2.89 2.89 0 0 0-.582-.074c-1.132 0-1.699.723-1.695 2.164-.004.688.133 1.215.414 1.578.274.367.684.547 1.227.547.46 0 .937-.097 1.425-.3v.746c-.375.19-.843.285-1.406.289zm0 0"/></symbol><symbol overflow="visible" id="i"><path style="stroke:none" d="m4.316 0-.168-.793H4.11c-.28.352-.558.586-.832.711-.28.121-.625.18-1.03.184C1.69.098 1.256-.04.944-.324.63-.605.473-1.012.477-1.54.473-2.66 1.37-3.25 3.172-3.305l.945-.03v-.345c-.004-.437-.097-.757-.281-.968-.191-.204-.492-.309-.902-.313-.465.004-.989.145-1.575.426l-.257-.645c.273-.148.57-.261.898-.347.324-.082.652-.125.984-.13.66.005 1.153.15 1.477.442.316.297.476.77.48 1.418V0zM2.41-.594c.524.004.938-.14 1.238-.43.297-.285.446-.687.45-1.21v-.504l-.844.035c-.672.031-1.152.137-1.45.316-.296.188-.445.473-.445.86 0 .308.09.539.278.695.18.16.437.242.773.238zm0 0"/></symbol><symbol overflow="visible" id="j"><path style="stroke:none" d="M4.703 0v-3.602c-.004-.449-.11-.785-.312-1.011-.211-.219-.532-.332-.97-.336-.585.004-1.015.164-1.28.476-.274.32-.407.84-.403 1.563V0H.895v-7.902h.843v2.394c-.004.29-.02.528-.043.715h.051a1.72 1.72 0 0 1 .707-.633 2.376 2.376 0 0 1 1.05-.23c.68.004 1.188.164 1.532.484.336.324.508.84.512 1.543V0zm0 0"/></symbol><symbol overflow="visible" id="k"><path style="stroke:none" d="M5.45-5.566v.535l-1.032.12c.094.118.176.274.254.466.07.191.11.406.113.648-.004.547-.191.985-.558 1.305-.375.328-.887.488-1.536.488-.171 0-.328-.012-.468-.043-.36.195-.535.434-.535.715 0 .156.062.27.187.34.125.078.34.113.645.11h.984C4.105-.88 4.566-.75 4.89-.5c.324.258.488.621.488 1.105 0 .61-.25 1.079-.742 1.407-.5.32-1.219.484-2.164.488-.727-.004-1.29-.14-1.684-.406C.395 1.82.2 1.438.2.945.2.602.305.31.523.066c.211-.25.516-.414.914-.504a.757.757 0 0 1-.359-.296.755.755 0 0 1-.144-.473.856.856 0 0 1 .16-.531c.105-.153.277-.301.515-.446a1.432 1.432 0 0 1-.703-.601 1.75 1.75 0 0 1-.273-.977c0-.61.18-1.078.547-1.41.363-.328.883-.492 1.558-.496.285.004.547.035.785.102zM1.011.934a.741.741 0 0 0 .379.683c.25.156.617.235 1.093.235.704 0 1.227-.106 1.57-.317.34-.21.508-.5.512-.86-.003-.304-.097-.51-.28-.628-.188-.113-.536-.168-1.052-.172H2.223c-.387.004-.684.09-.895.273-.215.18-.32.442-.316.786zm.457-4.715c-.004.39.105.683.328.883.219.199.523.296.918.296.82 0 1.234-.398 1.234-1.195 0-.836-.418-1.254-1.246-1.254-.402 0-.707.11-.918.32-.215.215-.32.532-.316.95zm0 0"/></symbol><symbol overflow="visible" id="l"><path style="stroke:none" d="M3.434-5.668c.246.004.464.023.664.063l-.118.78a3.208 3.208 0 0 0-.609-.073c-.453 0-.836.183-1.156.546-.32.368-.48.825-.477 1.368V0H.895v-5.566h.695l.097 1.03h.04c.203-.359.453-.636.746-.835.289-.195.609-.293.96-.297zm0 0"/></symbol><symbol overflow="visible" id="m"><path style="stroke:none" d="M4.484-1.52c-.004.524-.195.922-.582 1.2-.386.28-.93.418-1.62.422C1.538.098.964-.016.554-.25v-.781c.261.136.547.246.86.32.304.082.6.121.886.117.437.004.777-.066 1.015-.21.235-.137.352-.352.356-.641a.732.732 0 0 0-.281-.559c-.192-.152-.559-.332-1.102-.547-.52-.187-.887-.355-1.105-.504a1.407 1.407 0 0 1-.485-.488 1.258 1.258 0 0 1-.16-.656c0-.45.184-.809.55-1.074.368-.262.872-.391 1.52-.395a4.59 4.59 0 0 1 1.758.367l-.3.684c-.56-.227-1.067-.34-1.516-.344-.406.004-.707.066-.906.188-.208.128-.31.3-.305.52a.583.583 0 0 0 .113.378c.078.11.2.207.371.3.164.095.488.231.973.41.656.243 1.105.485 1.34.728.23.246.343.554.347.917zm0 0"/></symbol><symbol overflow="visible" id="n"><path style="stroke:none" d="M3.484-5.656c.73.004 1.297.254 1.704.75.398.5.601 1.203.605 2.117-.004.914-.207 1.625-.613 2.133-.407.504-.973.754-1.696.758a2.472 2.472 0 0 1-.992-.2 1.805 1.805 0 0 1-.754-.617h-.062L1.496 0H.895v-7.902h.843v1.922c-.004.433-.02.82-.043 1.156h.043c.387-.551.969-.828 1.746-.832zm-.12.707c-.579.004-.997.168-1.247.496-.258.328-.383.883-.379 1.664-.004.785.125 1.348.39 1.68.259.34.677.507 1.255.504.515.003.902-.188 1.156-.567.254-.375.383-.914.383-1.625 0-.719-.129-1.258-.383-1.617-.254-.352-.644-.531-1.176-.535zm0 0"/></symbol><symbol overflow="visible" id="o"><path style="stroke:none" d="M.219 2.5c-.324-.004-.582-.047-.781-.129v-.683c.234.066.46.097.687.101.262-.004.457-.074.582-.219.121-.144.184-.363.188-.656v-6.48h.843V.852C1.734 1.945 1.227 2.496.218 2.5zm.605-9.574c-.004-.188.043-.328.14-.422a.513.513 0 0 1 .356-.137c.133.004.25.051.348.137.098.094.148.234.148.422 0 .195-.05.336-.148.426a.468.468 0 0 1-.348.136.451.451 0 0 1-.355-.136c-.098-.09-.145-.23-.14-.426zm0 0"/></symbol></defs><path style="fill-rule:nonzero;fill:#fff;fill-opacity:1;stroke-width:0;stroke-linecap:butt;stroke-linejoin:miter;stroke:#fff;stroke-opacity:1;stroke-miterlimit:10" d="M0 0h40v17H0zm0 0" transform="rotate(.029) scale(7.6778)"/><path style="fill-rule:evenodd;fill:#ffffc4;fill-opacity:1;stroke-width:.1;stroke-linecap:butt;stroke-linejoin:miter;stroke:#000;stroke-opacity:1;stroke-miterlimit:10" d="M16.889 1h6.222C24 1 24 1 24 1.508V3.54c0 .507 0 .507-.889.507h-6.222c-.89 0-.89 0-.89-.507V1.508C16 1 16 1 16.89 1" transform="rotate(.029) scale(7.6778)"/><path style="fill:none;stroke-width:.01;stroke-linecap:butt;stroke-linejoin:miter;stroke:#000;stroke-opacity:1;stroke-miterlimit:10" d="M16.889 1h6.222C24 1 24 1 24 1.508V3.54c0 .507 0 .507-.889.507h-6.222c-.89 0-.89 0-.89-.507V1.508C16 1 16 1 16.89 1M16.889 4.047h6.222M24 1.508V3.54M16 1.508V3.54M16.889 1h6.222" transform="rotate(.029) scale(7.6778)"/><g style="fill:#000;fill-opacity:1"><use xlink:href="#a" x="139.844" y="23.925"/><use xlink:href="#b" x="145.677" y="23.925"/><use xlink:href="#c" x="152.058" y="23.925"/><use xlink:href="#d" x="155.732" y="23.925"/><use xlink:href="#c" x="158.363" y="23.925"/><use xlink:href="#e" x="162.037" y="23.925"/></g><path style="fill-rule:evenodd;fill:#ffffc4;fill-opacity:1;stroke-width:.1;stroke-linecap:butt;stroke-linejoin:miter;stroke:#000;stroke-opacity:1;stroke-miterlimit:10" d="M16.889 7h6.222C24 7 24 7 24 7.508v2.031c0 .508 0 .508-.889.508h-6.222c-.89 0-.89 0-.89-.508V7.508C16 7 16 7 16.89 7" transform="rotate(.029) scale(7.6778)"/><path style="fill:none;stroke-width:.01;stroke-linecap:butt;stroke-linejoin:miter;stroke:#000;stroke-opacity:1;stroke-miterlimit:10" d="M16.889 7h6.222C24 7 24 7 24 7.508v2.031c0 .508 0 .508-.889.508h-6.222c-.89 0-.89 0-.89-.508V7.508C16 7 16 7 16.89 7M16.889 10.047h6.222M24 7.508v2.031M16 7.508v2.031M16.889 7h6.222" transform="rotate(.029) scale(7.6778)"/><g style="fill:#000;fill-opacity:1"><use xlink:href="#f" x="134.25" y="69.992"/><use xlink:href="#g" x="136.882" y="69.992"/><use xlink:href="#h" x="143.165" y="69.992"/><use xlink:href="#i" x="148.114" y="69.992"/><use xlink:href="#c" x="153.894" y="69.992"/><use xlink:href="#d" x="157.568" y="69.992"/><use xlink:href="#g" x="160.2" y="69.992"/><use xlink:href="#b" x="166.483" y="69.992"/></g><path style="fill-rule:evenodd;fill:#ffffc4;fill-opacity:1;stroke-width:.1;stroke-linecap:butt;stroke-linejoin:miter;stroke:#000;stroke-opacity:1;stroke-miterlimit:10" d="M6.889 7h6.222C14 7 14 7 14 7.508v2.031c0 .508 0 .508-.889.508H6.89c-.89 0-.89 0-.89-.508V7.508C6 7 6 7 6.89 7" transform="rotate(.029) scale(7.6778)"/><path style="fill:none;stroke-width:.01;stroke-linecap:butt;stroke-linejoin:miter;stroke:#000;stroke-opacity:1;stroke-miterlimit:10" d="M6.889 7h6.222C14 7 14 7 14 7.508v2.031c0 .508 0 .508-.889.508H6.89c-.89 0-.89 0-.89-.508V7.508C6 7 6 7 6.89 7M6.889 10.047h6.222M14 7.508v2.031M6 7.508v2.031M6.889 7h6.222" transform="rotate(.029) scale(7.6778)"/><g style="fill:#000;fill-opacity:1"><use xlink:href="#c" x="64.398" y="69.992"/><use xlink:href="#j" x="68.072" y="69.992"/><use xlink:href="#d" x="74.453" y="69.992"/><use xlink:href="#b" x="77.085" y="69.992"/><use xlink:href="#k" x="83.465" y="69.992"/></g><path style="fill:none;stroke-width:.1;stroke-linecap:butt;stroke-linejoin:miter;stroke:#000;stroke-opacity:1;stroke-miterlimit:10" d="M20 4.047 10 7M20 4.047V7" transform="rotate(.029) scale(7.6778)"/><path style="fill-rule:evenodd;fill:#f7f7f7;fill-opacity:1;stroke-width:.1;stroke-linecap:butt;stroke-linejoin:miter;stroke:#000;stroke-opacity:1;stroke-miterlimit:10" d="M26.89 7h6.22C34 7 34 7 34 7.508v2.031c0 .508 0 .508-.89.508h-6.22c-.89 0-.89 0-.89-.508V7.508C26 7 26 7 26.89 7" transform="rotate(.029) scale(7.6778)"/><path style="fill:none;stroke-width:.01;stroke-linecap:butt;stroke-linejoin:miter;stroke:#000;stroke-opacity:1;stroke-miterlimit:10" d="M26.89 7h6.22C34 7 34 7 34 7.508v2.031c0 .508 0 .508-.89.508h-6.22c-.89 0-.89 0-.89-.508V7.508C26 7 26 7 26.89 7M26.89 10.047h6.22M34 7.508v2.031M26 7.508v2.031M26.89 7h6.22" transform="rotate(.029) scale(7.6778)"/><g style="fill:#000;fill-opacity:1"><use xlink:href="#f" x="216.621" y="69.992"/><use xlink:href="#d" x="219.253" y="69.992"/><use xlink:href="#c" x="221.885" y="69.992"/><use xlink:href="#a" x="225.559" y="69.992"/><use xlink:href="#l" x="231.392" y="69.992"/><use xlink:href="#i" x="235.636" y="69.992"/><use xlink:href="#f" x="241.416" y="69.992"/></g><path style="fill-rule:evenodd;fill:#f7f7f7;fill-opacity:1;stroke-width:.1;stroke-linecap:butt;stroke-linejoin:miter;stroke:#000;stroke-opacity:1;stroke-miterlimit:10" d="M21.889 13h6.222C29 13 29 13 29 13.508v2.031c0 .508 0 .508-.889.508H21.89c-.889 0-.889 0-.889-.508v-2.031C21 13 21 13 21.89 13" transform="rotate(.029) scale(7.6778)"/><path style="fill:none;stroke-width:.01;stroke-linecap:butt;stroke-linejoin:miter;stroke:#000;stroke-opacity:1;stroke-miterlimit:10" d="M21.889 13h6.222C29 13 29 13 29 13.508v2.031c0 .508 0 .508-.889.508H21.89c-.889 0-.889 0-.889-.508v-2.031C21 13 21 13 21.89 13M21.889 16.047h6.222M29 13.508v2.031M21 13.508v2.031M21.889 13h6.222" transform="rotate(.029) scale(7.6778)"/><g style="fill:#000;fill-opacity:1"><use xlink:href="#m" x="178.148" y="116.062"/><use xlink:href="#c" x="183.112" y="116.062"/><use xlink:href="#l" x="186.786" y="116.062"/><use xlink:href="#d" x="191.03" y="116.062"/><use xlink:href="#b" x="193.661" y="116.062"/><use xlink:href="#k" x="200.042" y="116.062"/></g><path style="fill-rule:evenodd;fill:#f7f7f7;fill-opacity:1;stroke-width:.1;stroke-linecap:butt;stroke-linejoin:miter;stroke:#000;stroke-opacity:1;stroke-miterlimit:10" d="M31.889 13h6.222C39 13 39 13 39 13.508v2.031c0 .508 0 .508-.889.508H31.89c-.889 0-.889 0-.889-.508v-2.031C31 13 31 13 31.889 13" transform="rotate(.029) scale(7.6778)"/><path style="fill:none;stroke-width:.01;stroke-linecap:butt;stroke-linejoin:miter;stroke:#000;stroke-opacity:1;stroke-miterlimit:10" d="M31.889 13h6.222C39 13 39 13 39 13.508v2.031c0 .508 0 .508-.889.508H31.89c-.889 0-.889 0-.889-.508v-2.031C31 13 31 13 31.889 13M31.889 16.047h6.222M39 13.508v2.031M31 13.508v2.031M31.889 13h6.222" transform="rotate(.029) scale(7.6778)"/><g style="fill:#000;fill-opacity:1"><use xlink:href="#d" x="251.574" y="116.062"/><use xlink:href="#b" x="254.206" y="116.062"/><use xlink:href="#c" x="260.587" y="116.062"/><use xlink:href="#a" x="264.261" y="116.062"/><use xlink:href="#k" x="270.094" y="116.062"/><use xlink:href="#a" x="275.792" y="116.062"/><use xlink:href="#l" x="281.626" y="116.062"/></g><path style="fill:none;stroke-width:.1;stroke-linecap:butt;stroke-linejoin:miter;stroke:#000;stroke-opacity:1;stroke-miterlimit:10" d="M20 4.047 30 7M30 10.047 35 13M25 13l5-2.953" transform="rotate(.029) scale(7.6778)"/><path style="fill-rule:evenodd;fill:#ffffc4;fill-opacity:1;stroke-width:.1;stroke-linecap:butt;stroke-linejoin:miter;stroke:#000;stroke-opacity:1;stroke-miterlimit:10" d="M11.889 13h6.222c.89 0 .89 0 .89.508v2.031c0 .508 0 .508-.89.508H11.89c-.889 0-.889 0-.889-.508v-2.031C11 13 11 13 11.89 13" transform="rotate(.029) scale(7.6778)"/><path style="fill:none;stroke-width:.01;stroke-linecap:butt;stroke-linejoin:miter;stroke:#000;stroke-opacity:1;stroke-miterlimit:10" d="M11.889 13h6.222c.89 0 .89 0 .89.508v2.031c0 .508 0 .508-.89.508H11.89c-.889 0-.889 0-.889-.508v-2.031C11 13 11 13 11.89 13M11.889 16.047h6.222M19 13.508v2.031M11 13.508v2.031M11.889 13h6.222" transform="rotate(.029) scale(7.6778)"/><g style="fill:#000;fill-opacity:1"><use xlink:href="#i" x="102.707" y="116.062"/><use xlink:href="#h" x="108.488" y="116.062"/><use xlink:href="#c" x="113.436" y="116.062"/><use xlink:href="#g" x="117.11" y="116.062"/><use xlink:href="#l" x="123.394" y="116.062"/></g><path style="fill-rule:evenodd;fill:#ffffc4;fill-opacity:1;stroke-width:.1;stroke-linecap:butt;stroke-linejoin:miter;stroke:#000;stroke-opacity:1;stroke-miterlimit:10" d="M1.89 13H8.11c.89 0 .89 0 .89.508v2.031c0 .508 0 .508-.89.508H1.89c-.889 0-.889 0-.889-.508v-2.031C1 13 1 13 1.89 13" transform="rotate(.029) scale(7.6778)"/><path style="fill:none;stroke-width:.01;stroke-linecap:butt;stroke-linejoin:miter;stroke:#000;stroke-opacity:1;stroke-miterlimit:10" d="M1.89 13H8.11c.89 0 .89 0 .89.508v2.031c0 .508 0 .508-.89.508H1.89c-.889 0-.889 0-.889-.508v-2.031C1 13 1 13 1.89 13M1.89 16.047H8.11M9 13.508v2.031M1 13.508v2.031M1.89 13H8.11" transform="rotate(.029) scale(7.6778)"/><g style="fill:#000;fill-opacity:1"><use xlink:href="#g" x="23.52" y="116.062"/><use xlink:href="#n" x="29.803" y="116.062"/><use xlink:href="#o" x="36.176" y="116.062"/><use xlink:href="#a" x="38.808" y="116.062"/><use xlink:href="#h" x="44.641" y="116.062"/><use xlink:href="#c" x="49.59" y="116.062"/></g><path style="fill:none;stroke-width:.1;stroke-linecap:butt;stroke-linejoin:miter;stroke:#000;stroke-opacity:1;stroke-miterlimit:10" d="M10 10.047 15 13M5 13l5-2.953" transform="rotate(.029) scale(7.6778)"/></svg>